<?xml version="1.0" encoding="UTF-8" standalone="no"?>
<!DOCTYPE svg PUBLIC "-//W3C//DTD SVG 1.1//EN" "http://www.w3.org/Graphics/SVG/1.1/DTD/svg11.dtd">
<svg xmlns="http://www.w3.org/2000/svg" version="1.1" width="400" height="207" viewBox="0.00 0.00 1061.00 536.00">
<g stroke-width="2.00" fill="none" stroke-linecap="butt">
<path stroke="#284f6b" vector-effect="non-scaling-stroke" d="
  M 709.98 170.56
  C 704.83 166.99 697.96 165.35 689.02 162.28"
/>
<path stroke="#808080" vector-effect="non-scaling-stroke" d="
  M 688.28 161.39
  Q 686.24 144.92 681.55 132.74
  C 676.55 119.73 672.88 107.23 663.44 96.07
  Q 658.80 90.58 649.90 83.14
  C 639.51 74.46 627.53 70.40 615.02 67.76"
/>
<path stroke="#808080" vector-effect="non-scaling-stroke" d="
  M 611.44 67.01
  Q 590.34 64.46 576.50 65.75
  C 568.06 66.53 559.64 66.47 551.37 68.58
  C 542.27 70.91 532.60 73.53 524.51 77.40
  Q 513.51 82.67 504.69 90.10"
/>
<path stroke="#656565" vector-effect="non-scaling-stroke" d="
  M 504.69 90.10
  C 480.58 109.00 462.91 134.49 449.94 161.72
  Q 445.88 170.25 440.74 178.14
  Q 439.11 180.65 437.55 183.28"
/>
<path stroke="#a7cfea" vector-effect="non-scaling-stroke" d="
  M 675.43 157.45
  Q 658.86 151.52 650.34 149.11
  Q 632.04 143.95 623.45 158.62
  C 619.94 164.61 620.48 172.31 619.74 180.25
  Q 617.68 202.34 615.61 224.51
  Q 615.56 225.06 615.07 224.81
  Q 597.97 215.92 578.75 214.01
  C 558.22 211.97 536.81 212.83 517.46 220.67
  Q 517.04 220.84 516.83 220.42
  Q 516.69 220.15 516.50 220.00"
/>
<path stroke="#e4e4e4" vector-effect="non-scaling-stroke" d="
  M 516.50 220.00
  Q 513.29 203.47 512.21 192.50
  Q 511.42 184.55 510.44 178.91
  C 509.95 176.10 510.03 173.13 509.60 170.21
  C 508.95 165.78 509.13 161.57 508.38 157.23
  C 507.63 152.83 507.17 147.67 507.01 143.24
  C 506.87 139.51 506.08 135.74 506.02 132.24
  Q 505.84 123.11 505.67 113.97
  C 505.64 112.13 504.94 110.06 504.99 108.50
  Q 505.23 99.50 504.69 90.10"
/>
<path stroke="#8cb4cf" vector-effect="non-scaling-stroke" d="
  M 516.50 220.00
  L 516.37 220.88
  Q 516.29 221.42 515.81 221.67
  Q 498.99 230.50 487.33 245.46
  A 0.13 0.13 0.0 0 1 487.11 245.44
  C 475.87 224.90 458.87 212.38 435.03 211.83"
/>
<path stroke="#284f6b" vector-effect="non-scaling-stroke" d="
  M 587.97 408.60
  C 581.16 412.08 573.45 413.83 565.94 415.40"
/>
<path stroke="#a7b56b" vector-effect="non-scaling-stroke" d="
  M 565.94 415.40
  C 550.81 417.49 534.81 418.31 519.98 414.08"
/>
<path stroke="#8da26b" vector-effect="non-scaling-stroke" d="
  M 519.98 414.08
  Q 514.10 412.73 508.18 409.35
  Q 503.02 406.41 498.52 402.95
  A 1.71 1.70 -34.2 0 0 497.01 402.67
  L 485.72 405.99"
/>
<path stroke="#284f6b" vector-effect="non-scaling-stroke" d="
  M 485.72 405.99
  C 473.50 409.68 461.14 412.99 448.99 416.84
  C 444.33 418.32 438.53 419.36 433.72 418.03
  C 430.89 417.25 429.01 417.41 426.73 414.84
  Q 426.41 414.47 425.92 414.56
  Q 425.10 414.71 424.80 414.04
  Q 424.57 413.52 424.02 413.65
  C 409.67 417.07 398.93 417.03 385.74 417.03
  Q 383.04 417.04 375.32 414.60"
/>
<path stroke="#284f6b" vector-effect="non-scaling-stroke" d="
  M 315.91 408.85
  L 310.23 410.95"
/>
<path stroke="#a7cfea" vector-effect="non-scaling-stroke" d="
  M 679.42 350.26
  A 0.25 0.25 0.0 0 1 679.85 350.13
  L 722.42 394.56
  Q 722.86 395.02 723.32 394.59
  L 759.85 360.30
  A 0.44 0.44 0.0 0 0 759.89 359.70
  Q 739.79 335.34 716.19 314.37
  Q 715.83 314.04 716.24 313.78
  L 761.50 285.74
  A 0.65 0.65 0.0 0 0 761.78 284.97
  L 748.41 244.81
  A 0.30 0.29 -21.7 0 0 748.00 244.64
  L 689.52 273.43
  A 0.20 0.20 0.0 0 1 689.23 273.24
  C 691.03 244.71 694.71 216.46 698.73 188.17
  Q 698.82 187.58 698.26 187.39
  L 641.84 167.66
  Q 641.37 167.50 641.32 167.99
  L 619.16 395.36
  A 0.59 0.59 0.0 0 0 619.75 396.00
  L 670.21 396.01
  A 0.58 0.58 0.0 0 0 670.78 395.54
  L 679.42 350.26"
/>
<path stroke="#a7cfea" vector-effect="non-scaling-stroke" d="
  M 217.22 245.33
  Q 217.00 245.34 216.98 245.11
  C 216.00 233.43 214.06 221.21 209.19 210.87
  C 200.06 191.51 183.56 177.85 162.75 172.34
  C 148.14 168.46 132.97 167.46 118.22 170.20
  Q 109.48 171.82 99.24 176.30
  C 60.35 193.32 30.49 221.25 22.33 264.26
  C 13.07 313.03 30.47 381.73 87.26 393.49
  Q 97.31 395.57 102.50 395.46
  Q 129.05 394.91 153.02 383.59
  Q 153.44 383.39 153.80 383.68
  L 168.03 395.19
  Q 168.37 395.46 168.69 395.18
  L 202.19 365.44
  A 0.46 0.46 0.0 0 0 202.23 364.78
  L 190.90 352.06
  Q 190.52 351.64 190.85 351.18
  Q 206.82 329.02 213.49 302.52
  Q 214.36 299.05 214.19 302.62
  C 213.08 325.93 214.97 347.93 225.79 369.08
  Q 228.54 374.46 232.48 378.44
  C 245.00 391.10 261.16 398.02 279.25 396.64
  C 301.52 394.95 320.81 386.73 334.60 369.12
  C 339.27 363.15 341.86 357.64 343.37 350.41
  Q 345.86 338.51 346.56 327.75
  Q 348.08 304.10 346.87 280.17
  A 0.27 0.26 -71.6 0 1 347.30 279.95
  L 380.32 306.17
  Q 380.70 306.47 381.04 306.12
  C 390.18 296.50 400.01 285.78 412.71 280.91
  C 415.54 279.82 419.73 278.78 422.33 280.81
  C 428.00 285.24 428.96 300.80 429.21 307.46
  Q 429.23 307.98 428.71 307.92
  Q 409.83 305.79 391.00 308.33
  C 377.70 310.13 362.97 314.42 354.23 325.42
  Q 346.96 334.56 347.02 346.51
  C 347.12 367.90 357.63 386.94 378.43 394.03
  C 382.62 395.46 387.06 396.98 391.01 397.02
  Q 413.29 397.27 435.54 388.83
  Q 436.17 388.59 436.29 389.25
  L 437.82 397.99
  Q 437.92 398.56 438.48 398.39
  L 489.71 383.45
  A 0.37 0.37 0.0 0 0 489.97 383.06
  Q 486.15 336.15 479.60 289.74
  C 476.44 267.39 466.05 235.46 439.50 232.26
  Q 426.35 230.67 410.48 233.39
  C 383.41 238.02 362.96 256.21 347.27 278.32
  Q 347.00 278.69 346.98 278.24
  L 345.28 246.82
  A 0.88 0.87 -85.3 0 0 344.59 246.00
  L 292.26 234.20
  A 0.45 0.44 -85.1 0 0 291.72 234.66
  C 293.09 261.22 295.66 288.18 292.79 314.76
  C 292.14 320.82 290.69 329.56 285.86 333.84
  C 282.69 336.64 276.43 335.21 273.41 333.14
  C 267.74 329.27 265.84 319.13 265.06 312.48
  Q 263.72 301.05 264.01 297.00
  Q 266.29 264.32 268.66 231.80
  A 0.34 0.33 -2.8 0 0 268.27 231.45
  L 218.16 239.39
  Q 217.55 239.49 217.52 240.11
  L 217.32 245.12
  Q 217.31 245.32 217.23 245.33
  L 217.22 245.33"
/>
<path stroke="#a7cfea" vector-effect="non-scaling-stroke" d="
  M 911.33 362.15
  L 899.99 323.75
  A 0.50 0.50 0.0 0 0 899.18 323.51
  C 884.60 336.48 863.78 350.93 843.23 349.85
  C 836.08 349.47 825.46 348.73 820.29 342.90
  A 0.32 0.31 -33.0 0 1 820.40 342.41
  L 909.49 301.62
  Q 909.95 301.41 909.96 300.90
  Q 910.24 270.96 889.96 251.09
  C 878.36 239.72 860.15 234.74 844.24 234.30
  Q 839.37 234.17 829.00 234.49
  C 804.79 235.23 785.30 247.46 771.76 267.06
  Q 769.30 270.63 767.55 274.87
  C 762.12 288.07 759.59 303.40 759.12 317.78
  Q 758.77 328.26 760.87 337.62
  C 766.42 362.46 780.97 383.37 804.20 394.66
  Q 810.50 397.73 817.80 398.95
  C 853.76 404.96 886.78 389.51 911.18 364.25
  Q 911.80 363.61 911.77 364.50
  L 910.63 395.56
  A 0.43 0.43 0.0 0 0 911.06 396.00
  L 974.00 396.01
  Q 974.46 396.01 974.45 395.54
  Q 973.67 366.57 972.80 337.78
  Q 972.73 335.70 973.71 333.96
  C 988.08 308.45 1012.58 293.28 1040.48 286.31
  A 0.39 0.39 0.0 0 0 1040.73 285.75
  L 1018.47 243.71
  Q 1018.18 243.16 1017.57 243.21
  C 1001.74 244.37 982.55 261.37 971.81 272.16
  A 0.25 0.24 -21.4 0 1 971.39 271.98
  L 972.90 231.49
  A 0.34 0.34 0.0 0 0 972.49 231.15
  L 916.77 243.05
  A 0.47 0.45 86.1 0 0 916.41 243.48
  L 911.90 362.08
  Q 911.83 363.83 911.33 362.15"
/>
<path stroke="#a7cfea" vector-effect="non-scaling-stroke" d="
  M 528.00 238.64
  C 509.44 246.46 496.99 263.31 491.78 282.50
  C 487.76 297.29 486.46 313.45 487.03 328.50
  C 488.14 357.55 500.85 391.41 533.28 396.33
  Q 541.84 397.63 553.24 396.58
  C 581.56 393.97 604.74 378.16 619.70 354.34
  Q 620.01 353.84 619.59 353.44
  L 592.50 327.47
  A 0.76 0.75 44.2 0 0 591.44 327.48
  C 582.03 336.90 568.37 344.48 555.00 338.45
  C 540.11 331.74 539.06 313.79 543.49 300.01
  C 551.23 275.91 578.16 278.97 593.80 291.97
  Q 594.38 292.45 594.91 291.90
  L 626.12 259.35
  Q 626.51 258.95 626.13 258.55
  C 605.34 236.57 576.58 230.67 547.39 234.02
  Q 535.85 235.34 528.00 238.64"
/>
<path stroke="#a7cfea" vector-effect="non-scaling-stroke" d="
  M 135.20 279.09
  L 151.70 299.31
  Q 152.20 299.92 152.59 299.23
  C 161.09 284.16 166.14 262.64 160.88 245.54
  C 155.84 229.16 137.79 226.07 123.73 231.25
  C 109.18 236.61 98.17 250.13 90.36 263.18
  Q 86.18 270.18 84.38 277.27
  C 82.61 284.27 81.34 292.74 82.64 299.91
  C 85.21 314.06 91.35 324.54 106.11 326.63
  C 111.69 327.41 117.81 326.00 123.37 324.44
  Q 123.90 324.29 123.76 323.75
  L 115.97 293.98
  A 0.90 0.89 64.2 0 1 116.29 293.04
  L 134.29 278.98
  A 0.66 0.65 51.3 0 1 135.20 279.09"
/>
<path stroke="#a7cfea" vector-effect="non-scaling-stroke" d="
  M 394.73 349.12
  C 393.48 361.83 425.92 355.41 431.89 354.09
  Q 432.38 353.99 432.33 353.49
  L 430.91 339.23
  Q 430.85 338.66 430.28 338.65
  C 421.31 338.51 396.00 336.24 394.73 349.12"
/>
<path stroke="#a7cfea" vector-effect="non-scaling-stroke" d="
  M 807.38 303.65
  L 859.28 280.63
  A 0.53 0.52 -33.2 0 0 859.46 279.79
  Q 849.87 269.30 835.50 270.13
  Q 826.49 270.65 823.31 272.05
  C 810.52 277.70 805.50 289.99 806.88 303.36
  A 0.36 0.36 0.0 0 0 807.38 303.65"
/>
<path stroke="#e4b801" vector-effect="non-scaling-stroke" d="
  M 519.98 414.08
  Q 519.17 420.72 516.56 425.28
  C 513.43 430.74 509.55 435.94 503.50 439.01
  C 486.85 447.47 468.08 450.28 447.99 451.16
  C 437.71 451.60 427.88 452.32 417.33 451.98
  C 406.41 451.62 395.55 451.79 384.56 451.48
  Q 370.59 451.08 356.65 451.49
  A 1.42 1.40 4.3 0 0 355.31 452.63
  L 354.70 455.70
  A 1.27 1.26 30.8 0 0 354.97 456.74
  Q 361.42 464.51 364.54 466.71
  C 378.87 476.84 395.27 482.27 412.28 485.90
  Q 434.15 490.56 456.28 493.75
  C 459.99 494.28 464.90 494.70 469.20 495.39
  Q 474.20 496.18 478.87 496.65
  C 483.86 497.14 489.04 498.10 493.74 498.44
  Q 511.52 499.73 529.25 500.33
  Q 541.08 500.73 552.91 500.48
  C 561.85 500.29 570.95 500.06 579.38 499.58
  Q 597.72 498.54 616.03 496.97
  Q 631.76 495.62 647.24 492.49
  Q 654.62 491.00 662.02 489.66
  C 664.35 489.24 666.21 488.08 668.74 487.69
  C 676.16 486.55 683.18 484.37 690.71 483.52"
/>
<path stroke="#655301" vector-effect="non-scaling-stroke" d="
  M 690.71 483.52
  C 685.11 486.57 679.22 488.18 673.61 491.07
  C 668.73 493.59 663.38 494.91 658.75 496.57
  C 639.76 503.38 620.56 508.37 600.87 512.74
  C 592.58 514.59 583.85 515.60 575.26 516.91
  C 551.47 520.54 527.24 521.31 503.22 520.46
  C 490.67 520.01 477.43 518.94 465.16 516.91
  Q 437.38 512.32 428.00 509.73
  Q 418.60 507.13 409.21 504.45
  Q 400.71 502.02 391.53 498.34
  C 382.04 494.53 372.40 491.13 363.40 486.63
  C 353.07 481.46 342.14 476.57 332.83 469.66
  Q 323.34 462.62 314.60 454.67
  Q 312.52 452.79 311.21 449.54
  C 308.28 442.33 306.91 432.23 312.58 426.33
  C 320.14 418.45 337.60 425.50 346.95 426.96
  C 375.39 431.42 402.86 429.56 431.06 423.45
  C 441.67 421.15 452.03 417.48 462.43 414.48
  Q 464.07 414.00 465.88 413.24
  C 472.37 410.53 479.10 408.38 485.72 405.99"
/>
<path stroke="#7f6600" vector-effect="non-scaling-stroke" d="
  M 690.71 483.52
  C 697.95 481.18 704.41 477.43 711.14 473.93
  C 718.93 469.88 738.58 458.55 734.82 447.23
  C 732.47 440.13 722.69 437.88 716.00 438.48
  Q 703.25 439.63 690.50 440.75
  Q 670.56 442.52 644.72 438.47
  C 623.79 435.19 608.50 430.74 590.49 425.78
  C 585.28 424.35 578.08 420.34 570.88 417.72
  Q 568.38 416.81 565.94 415.40"
/>
</g>
<path fill="#000000" d="
  M 709.98 170.56
  C 704.83 166.99 697.96 165.35 689.02 162.28
  Q 688.78 161.00 688.28 161.39
  Q 686.24 144.92 681.55 132.74
  C 676.55 119.73 672.88 107.23 663.44 96.07
  Q 658.80 90.58 649.90 83.14
  C 639.51 74.46 627.53 70.40 615.02 67.76
  Q 614.18 66.75 611.44 67.01
  Q 590.34 64.46 576.50 65.75
  C 568.06 66.53 559.64 66.47 551.37 68.58
  C 542.27 70.91 532.60 73.53 524.51 77.40
  Q 513.51 82.67 504.69 90.10
  C 480.58 109.00 462.91 134.49 449.94 161.72
  Q 445.88 170.25 440.74 178.14
  Q 439.11 180.65 437.55 183.28
  C 437.80 181.42 438.63 179.77 438.86 178.04
  C 440.25 167.44 442.04 156.52 445.85 146.42
  C 449.87 135.77 453.30 124.93 458.75 114.90
  C 466.33 100.94 473.71 88.08 484.44 76.20
  C 490.97 68.97 498.90 63.14 506.85 57.57
  Q 524.07 45.50 544.20 39.47
  A 0.72 0.72 0.0 0 0 544.67 38.53
  C 543.77 36.13 542.97 33.92 541.04 32.06
  C 537.15 28.32 532.51 25.31 528.22 22.04
  C 526.20 20.50 523.37 19.49 521.51 17.90
  Q 519.45 16.15 522.15 16.04
  C 528.28 15.78 533.97 15.95 540.21 17.04
  C 547.66 18.33 554.83 19.58 560.52 22.71
  Q 563.66 24.43 562.52 21.04
  Q 560.89 16.19 559.07 10.84
  C 558.02 7.73 557.58 4.51 556.90 1.23
  Q 556.64 0.04 557.80 0.42
  Q 559.77 1.07 561.78 2.72
  Q 568.36 8.14 574.47 14.05
  C 579.69 19.11 583.72 25.26 587.95 31.26
  C 590.71 35.17 595.86 35.44 600.25 36.25
  C 605.18 37.17 610.08 38.72 615.06 39.76
  C 621.82 41.16 627.31 42.49 632.50 44.78
  Q 637.09 46.80 640.13 48.03
  C 650.49 52.25 660.26 59.00 669.13 65.74
  Q 671.28 67.38 674.76 70.90
  C 677.18 73.36 680.04 75.41 682.12 77.99
  C 691.16 89.17 697.68 100.85 702.69 114.08
  C 709.63 132.41 710.15 151.23 709.98 170.56
  Z"
/>
<path fill="#ffffff" d="
  M 611.44 67.01
  L 615.02 67.76
  C 627.53 70.40 639.51 74.46 649.90 83.14
  Q 658.80 90.58 663.44 96.07
  C 672.88 107.23 676.55 119.73 681.55 132.74
  Q 686.24 144.92 688.28 161.39
  L 675.43 157.45
  Q 658.86 151.52 650.34 149.11
  Q 632.04 143.95 623.45 158.62
  C 619.94 164.61 620.48 172.31 619.74 180.25
  Q 617.68 202.34 615.61 224.51
  Q 615.56 225.06 615.07 224.81
  Q 597.97 215.92 578.75 214.01
  C 558.22 211.97 536.81 212.83 517.46 220.67
  Q 517.04 220.84 516.83 220.42
  Q 516.69 220.15 516.50 220.00
  Q 513.29 203.47 512.21 192.50
  Q 511.42 184.55 510.44 178.91
  C 509.95 176.10 510.03 173.13 509.60 170.21
  C 508.95 165.78 509.13 161.57 508.38 157.23
  C 507.63 152.83 507.17 147.67 507.01 143.24
  C 506.87 139.51 506.08 135.74 506.02 132.24
  Q 505.84 123.11 505.67 113.97
  C 505.64 112.13 504.94 110.06 504.99 108.50
  Q 505.23 99.50 504.69 90.10
  Q 513.51 82.67 524.51 77.40
  C 532.60 73.53 542.27 70.91 551.37 68.58
  C 559.64 66.47 568.06 66.53 576.50 65.75
  Q 590.34 64.46 611.44 67.01
  Z"
/>
<path fill="#c9c9c9" d="
  M 504.69 90.10
  Q 505.23 99.50 504.99 108.50
  C 504.94 110.06 505.64 112.13 505.67 113.97
  Q 505.84 123.11 506.02 132.24
  C 506.08 135.74 506.87 139.51 507.01 143.24
  C 507.17 147.67 507.63 152.83 508.38 157.23
  C 509.13 161.57 508.95 165.78 509.60 170.21
  C 510.03 173.13 509.95 176.10 510.44 178.91
  Q 511.42 184.55 512.21 192.50
  Q 513.29 203.47 516.50 220.00
  L 516.37 220.88
  Q 516.29 221.42 515.81 221.67
  Q 498.99 230.50 487.33 245.46
  A 0.13 0.13 0.0 0 1 487.11 245.44
  C 475.87 224.90 458.87 212.38 435.03 211.83
  Q 434.86 202.44 436.12 190.25
  Q 436.57 185.98 437.55 183.28
  Q 439.11 180.65 440.74 178.14
  Q 445.88 170.25 449.94 161.72
  C 462.91 134.49 480.58 109.00 504.69 90.10
  Z"
/>
<path fill="#4f9ed5" d="
  M 675.43 157.45
  L 689.02 162.28
  C 697.96 165.35 704.83 166.99 709.98 170.56
  C 717.82 176.68 719.70 185.19 718.25 194.98
  Q 714.99 216.85 712.51 238.82
  Q 712.45 239.32 712.91 239.10
  L 739.21 226.15
  A 1.91 1.89 -54.2 0 1 740.28 225.97
  Q 741.69 226.14 742.86 225.28
  Q 743.28 224.97 743.81 224.98
  L 751.45 224.99
  Q 751.91 224.99 752.27 225.28
  Q 753.39 226.21 754.89 225.97
  Q 755.40 225.88 755.87 226.11
  C 759.00 227.60 763.26 230.16 764.85 233.34
  C 765.39 234.41 766.22 234.88 766.71 235.84
  Q 767.55 237.49 768.12 239.26
  Q 768.29 239.76 768.66 239.39
  C 786.56 221.63 807.49 214.54 832.58 214.29
  Q 843.58 214.19 846.92 214.31
  C 865.75 215.03 884.53 220.59 899.62 232.03
  Q 900.10 232.40 900.39 231.87
  Q 900.59 231.50 900.44 231.00
  Q 900.27 230.42 900.65 230.13
  L 906.69 225.41
  A 2.31 1.95 11.9 0 1 907.30 225.08
  C 908.33 224.73 909.25 223.99 910.24 223.77
  Q 938.02 217.69 965.86 211.85
  C 975.73 209.78 985.39 212.82 990.54 221.80
  Q 990.74 222.15 990.76 222.55
  Q 990.80 223.10 991.33 223.34
  Q 991.78 223.54 991.77 224.03
  L 991.73 226.96
  Q 991.73 227.21 991.98 227.20
  Q 992.23 227.19 992.44 227.32
  Q 992.77 227.51 992.76 227.89
  L 992.74 229.79
  Q 992.74 230.26 993.15 230.03
  Q 1001.51 225.44 1010.87 223.70
  C 1014.32 223.06 1017.96 223.23 1021.55 223.27
  Q 1022.09 223.28 1022.34 223.76
  L 1022.47 224.02
  A 0.52 0.51 -14.7 0 0 1022.98 224.31
  C 1024.14 224.21 1025.11 224.06 1026.20 224.63
  C 1030.86 227.04 1034.48 230.20 1037.04 235.02
  Q 1047.80 255.32 1058.53 275.63
  C 1059.57 277.60 1060.40 281.40 1060.59 283.68
  C 1061.24 291.44 1057.86 298.68 1051.55 303.08
  Q 1049.06 304.82 1043.13 306.64
  C 1022.41 313.00 1005.19 322.47 993.21 341.01
  Q 992.93 341.44 992.94 341.96
  Q 993.62 365.26 994.27 388.49
  C 994.43 394.30 994.71 400.21 992.14 405.21
  Q 986.65 415.89 972.74 415.95
  Q 945.87 416.07 918.97 415.97
  C 908.15 415.93 902.05 416.28 895.30 409.09
  Q 894.94 408.71 894.82 408.21
  Q 894.45 406.64 892.93 405.85
  A 0.62 0.61 14.9 0 1 892.60 405.29
  L 892.63 404.76
  Q 892.64 404.44 892.37 404.60
  C 874.68 415.00 855.51 420.11 835.04 420.22
  C 826.03 420.27 818.04 419.90 809.46 418.07
  C 791.39 414.23 773.82 400.96 762.07 387.00
  Q 761.73 386.59 761.34 386.96
  Q 751.91 395.77 742.56 404.58
  Q 735.85 410.90 732.71 412.48
  C 723.47 417.12 712.38 414.18 705.39 406.59
  Q 698.91 399.55 692.64 392.96
  Q 692.00 392.29 691.86 393.21
  C 691.20 397.78 690.27 402.83 687.91 406.59
  C 684.42 412.15 679.33 415.05 672.86 415.78
  C 664.87 416.68 656.49 416.30 645.48 416.12
  C 637.84 415.99 624.17 416.77 614.57 415.40
  Q 608.92 414.59 604.42 409.75
  C 603.41 408.66 602.79 407.03 601.55 405.82
  A 1.05 1.03 -66.3 0 1 601.23 404.98
  Q 601.25 404.67 601.12 404.38
  Q 600.99 404.08 600.69 403.95
  Q 599.82 403.60 600.13 402.67
  Q 600.30 402.15 599.81 402.41
  L 587.97 408.60
  C 581.16 412.08 573.45 413.83 565.94 415.40
  C 550.81 417.49 534.81 418.31 519.98 414.08
  Q 514.10 412.73 508.18 409.35
  Q 503.02 406.41 498.52 402.95
  A 1.71 1.70 -34.2 0 0 497.01 402.67
  L 485.72 405.99
  C 473.50 409.68 461.14 412.99 448.99 416.84
  C 444.33 418.32 438.53 419.36 433.72 418.03
  C 430.89 417.25 429.01 417.41 426.73 414.84
  Q 426.41 414.47 425.92 414.56
  Q 425.10 414.71 424.80 414.04
  Q 424.57 413.52 424.02 413.65
  C 409.67 417.07 398.93 417.03 385.74 417.03
  Q 383.04 417.04 375.32 414.60
  Q 354.81 408.42 341.72 392.46
  Q 341.41 392.08 341.05 392.41
  Q 329.98 402.53 315.91 408.85
  L 310.23 410.95
  Q 288.85 418.16 267.25 416.64
  C 245.79 415.12 226.64 403.65 212.98 387.34
  C 212.41 386.65 212.10 386.03 211.64 385.19
  Q 211.37 384.69 210.94 385.07
  Q 196.73 397.70 182.51 410.28
  C 181.46 411.21 180.14 411.45 179.12 412.70
  A 1.22 1.21 17.5 0 1 178.23 413.16
  Q 177.40 413.21 176.83 413.81
  A 1.16 1.14 27.1 0 1 175.78 414.14
  Q 174.13 413.83 172.79 414.80
  A 1.68 1.66 26.4 0 1 171.85 415.11
  C 169.29 415.12 165.31 415.69 163.06 414.38
  Q 162.63 414.13 162.14 414.15
  C 158.62 414.28 153.00 409.56 150.50 407.36
  Q 150.05 406.96 149.49 407.17
  C 130.25 414.18 108.61 417.26 88.32 414.28
  C 31.27 405.93 2.17 352.17 0.00 298.86
  L 0.00 280.75
  C 2.55 234.27 24.68 196.58 64.04 171.78
  C 83.41 159.58 103.68 150.09 126.42 148.88
  C 171.19 146.50 210.37 162.56 229.29 205.73
  Q 231.80 211.44 232.69 216.04
  Q 232.79 216.54 233.29 216.46
  Q 247.80 214.18 262.24 211.89
  Q 272.38 210.28 281.64 215.98
  Q 282.07 216.24 282.55 216.08
  C 288.95 214.01 294.10 213.85 301.09 215.41
  Q 326.29 221.04 351.47 226.80
  C 352.54 227.04 353.25 227.73 354.31 228.15
  Q 354.75 228.32 355.08 228.65
  Q 356.05 229.64 357.34 230.16
  Q 357.76 230.33 358.09 230.65
  L 360.85 233.36
  A 0.59 0.58 -41.0 0 0 361.62 233.41
  Q 384.99 215.64 414.00 212.46
  C 420.37 211.76 428.02 211.99 435.03 211.83
  C 458.87 212.38 475.87 224.90 487.11 245.44
  A 0.13 0.13 0.0 0 0 487.33 245.46
  Q 498.99 230.50 515.81 221.67
  Q 516.29 221.42 516.37 220.88
  L 516.50 220.00
  Q 516.69 220.15 516.83 220.42
  Q 517.04 220.84 517.46 220.67
  C 536.81 212.83 558.22 211.97 578.75 214.01
  Q 597.97 215.92 615.07 224.81
  Q 615.56 225.06 615.61 224.51
  Q 617.68 202.34 619.74 180.25
  C 620.48 172.31 619.94 164.61 623.45 158.62
  Q 632.04 143.95 650.34 149.11
  Q 658.86 151.52 675.43 157.45
  Z
  M 679.42 350.26
  A 0.25 0.25 0.0 0 1 679.85 350.13
  L 722.42 394.56
  Q 722.86 395.02 723.32 394.59
  L 759.85 360.30
  A 0.44 0.44 0.0 0 0 759.89 359.70
  Q 739.79 335.34 716.19 314.37
  Q 715.83 314.04 716.24 313.78
  L 761.50 285.74
  A 0.65 0.65 0.0 0 0 761.78 284.97
  L 748.41 244.81
  A 0.30 0.29 -21.7 0 0 748.00 244.64
  L 689.52 273.43
  A 0.20 0.20 0.0 0 1 689.23 273.24
  C 691.03 244.71 694.71 216.46 698.73 188.17
  Q 698.82 187.58 698.26 187.39
  L 641.84 167.66
  Q 641.37 167.50 641.32 167.99
  L 619.16 395.36
  A 0.59 0.59 0.0 0 0 619.75 396.00
  L 670.21 396.01
  A 0.58 0.58 0.0 0 0 670.78 395.54
  L 679.42 350.26
  Z
  M 217.22 245.33
  Q 217.00 245.34 216.98 245.11
  C 216.00 233.43 214.06 221.21 209.19 210.87
  C 200.06 191.51 183.56 177.85 162.75 172.34
  C 148.14 168.46 132.97 167.46 118.22 170.20
  Q 109.48 171.82 99.24 176.30
  C 60.35 193.32 30.49 221.25 22.33 264.26
  C 13.07 313.03 30.47 381.73 87.26 393.49
  Q 97.31 395.57 102.50 395.46
  Q 129.05 394.91 153.02 383.59
  Q 153.44 383.39 153.80 383.68
  L 168.03 395.19
  Q 168.37 395.46 168.69 395.18
  L 202.19 365.44
  A 0.46 0.46 0.0 0 0 202.23 364.78
  L 190.90 352.06
  Q 190.52 351.64 190.85 351.18
  Q 206.82 329.02 213.49 302.52
  Q 214.36 299.05 214.19 302.62
  C 213.08 325.93 214.97 347.93 225.79 369.08
  Q 228.54 374.46 232.48 378.44
  C 245.00 391.10 261.16 398.02 279.25 396.64
  C 301.52 394.95 320.81 386.73 334.60 369.12
  C 339.27 363.15 341.86 357.64 343.37 350.41
  Q 345.86 338.51 346.56 327.75
  Q 348.08 304.10 346.87 280.17
  A 0.27 0.26 -71.6 0 1 347.30 279.95
  L 380.32 306.17
  Q 380.70 306.47 381.04 306.12
  C 390.18 296.50 400.01 285.78 412.71 280.91
  C 415.54 279.82 419.73 278.78 422.33 280.81
  C 428.00 285.24 428.96 300.80 429.21 307.46
  Q 429.23 307.98 428.71 307.92
  Q 409.83 305.79 391.00 308.33
  C 377.70 310.13 362.97 314.42 354.23 325.42
  Q 346.96 334.56 347.02 346.51
  C 347.12 367.90 357.63 386.94 378.43 394.03
  C 382.62 395.46 387.06 396.98 391.01 397.02
  Q 413.29 397.27 435.54 388.83
  Q 436.17 388.59 436.29 389.25
  L 437.82 397.99
  Q 437.92 398.56 438.48 398.39
  L 489.71 383.45
  A 0.37 0.37 0.0 0 0 489.97 383.06
  Q 486.15 336.15 479.60 289.74
  C 476.44 267.39 466.05 235.46 439.50 232.26
  Q 426.35 230.67 410.48 233.39
  C 383.41 238.02 362.96 256.21 347.27 278.32
  Q 347.00 278.69 346.98 278.24
  L 345.28 246.82
  A 0.88 0.87 -85.3 0 0 344.59 246.00
  L 292.26 234.20
  A 0.45 0.44 -85.1 0 0 291.72 234.66
  C 293.09 261.22 295.66 288.18 292.79 314.76
  C 292.14 320.82 290.69 329.56 285.86 333.84
  C 282.69 336.64 276.43 335.21 273.41 333.14
  C 267.74 329.27 265.84 319.13 265.06 312.48
  Q 263.72 301.05 264.01 297.00
  Q 266.29 264.32 268.66 231.80
  A 0.34 0.33 -2.8 0 0 268.27 231.45
  L 218.16 239.39
  Q 217.55 239.49 217.52 240.11
  L 217.32 245.12
  Q 217.31 245.32 217.23 245.33
  L 217.22 245.33
  Z
  M 911.33 362.15
  L 899.99 323.75
  A 0.50 0.50 0.0 0 0 899.18 323.51
  C 884.60 336.48 863.78 350.93 843.23 349.85
  C 836.08 349.47 825.46 348.73 820.29 342.90
  A 0.32 0.31 -33.0 0 1 820.40 342.41
  L 909.49 301.62
  Q 909.95 301.41 909.96 300.90
  Q 910.24 270.96 889.96 251.09
  C 878.36 239.72 860.15 234.74 844.24 234.30
  Q 839.37 234.17 829.00 234.49
  C 804.79 235.23 785.30 247.46 771.76 267.06
  Q 769.30 270.63 767.55 274.87
  C 762.12 288.07 759.59 303.40 759.12 317.78
  Q 758.77 328.26 760.87 337.62
  C 766.42 362.46 780.97 383.37 804.20 394.66
  Q 810.50 397.73 817.80 398.95
  C 853.76 404.96 886.78 389.51 911.18 364.25
  Q 911.80 363.61 911.77 364.50
  L 910.63 395.56
  A 0.43 0.43 0.0 0 0 911.06 396.00
  L 974.00 396.01
  Q 974.46 396.01 974.45 395.54
  Q 973.67 366.57 972.80 337.78
  Q 972.73 335.70 973.71 333.96
  C 988.08 308.45 1012.58 293.28 1040.48 286.31
  A 0.39 0.39 0.0 0 0 1040.73 285.75
  L 1018.47 243.71
  Q 1018.18 243.16 1017.57 243.21
  C 1001.74 244.37 982.55 261.37 971.81 272.16
  A 0.25 0.24 -21.4 0 1 971.39 271.98
  L 972.90 231.49
  A 0.34 0.34 0.0 0 0 972.49 231.15
  L 916.77 243.05
  A 0.47 0.45 86.1 0 0 916.41 243.48
  L 911.90 362.08
  Q 911.83 363.83 911.33 362.15
  Z
  M 528.00 238.64
  C 509.44 246.46 496.99 263.31 491.78 282.50
  C 487.76 297.29 486.46 313.45 487.03 328.50
  C 488.14 357.55 500.85 391.41 533.28 396.33
  Q 541.84 397.63 553.24 396.58
  C 581.56 393.97 604.74 378.16 619.70 354.34
  Q 620.01 353.84 619.59 353.44
  L 592.50 327.47
  A 0.76 0.75 44.2 0 0 591.44 327.48
  C 582.03 336.90 568.37 344.48 555.00 338.45
  C 540.11 331.74 539.06 313.79 543.49 300.01
  C 551.23 275.91 578.16 278.97 593.80 291.97
  Q 594.38 292.45 594.91 291.90
  L 626.12 259.35
  Q 626.51 258.95 626.13 258.55
  C 605.34 236.57 576.58 230.67 547.39 234.02
  Q 535.85 235.34 528.00 238.64
  Z
  M 581.94 309.58
  L 582.46 309.68
  A 0.31 0.30 -19.0 0 0 582.72 309.15
  C 578.69 305.66 570.36 300.53 564.90 302.96
  Q 564.45 303.16 564.22 303.59
  C 561.84 308.03 560.20 314.16 562.31 318.45
  A 3.33 3.32 64.8 0 0 566.65 320.02
  Q 573.12 317.13 578.05 311.95
  Q 578.43 311.55 578.99 311.54
  Q 579.13 311.54 579.28 311.54
  Q 579.66 311.52 579.91 311.24
  L 581.20 309.83
  Q 581.50 309.50 581.94 309.58
  Z
  M 603.76 310.07
  Q 603.61 310.04 603.47 310.01
  A 0.20 0.20 0.0 0 0 603.24 310.29
  Q 603.85 311.60 605.26 311.54
  Q 605.67 311.52 605.89 311.86
  L 606.28 312.46
  A 0.39 0.39 0.0 0 0 607.00 312.28
  L 607.39 308.26
  A 0.42 0.41 67.8 0 0 606.66 307.95
  Q 605.52 309.35 604.10 310.02
  Q 603.94 310.10 603.76 310.07
  Z"
/>
<path fill="#ffffff" d="
  M 679.42 350.26
  L 670.78 395.54
  A 0.58 0.58 0.0 0 1 670.21 396.01
  L 619.75 396.00
  A 0.59 0.59 0.0 0 1 619.16 395.36
  L 641.32 167.99
  Q 641.37 167.50 641.84 167.66
  L 698.26 187.39
  Q 698.82 187.58 698.73 188.17
  C 694.71 216.46 691.03 244.71 689.23 273.24
  A 0.20 0.20 0.0 0 0 689.52 273.43
  L 748.00 244.64
  A 0.30 0.29 -21.7 0 1 748.41 244.81
  L 761.78 284.97
  A 0.65 0.65 0.0 0 1 761.50 285.74
  L 716.24 313.78
  Q 715.83 314.04 716.19 314.37
  Q 739.79 335.34 759.89 359.70
  A 0.44 0.44 0.0 0 1 759.85 360.30
  L 723.32 394.59
  Q 722.86 395.02 722.42 394.56
  L 679.85 350.13
  A 0.25 0.25 0.0 0 0 679.42 350.26
  Z"
/>
<path fill="#ffffff" d="
  M 217.32 245.12
  L 217.52 240.11
  Q 217.55 239.49 218.16 239.39
  L 268.27 231.45
  A 0.34 0.33 -2.8 0 1 268.66 231.80
  Q 266.29 264.32 264.01 297.00
  Q 263.72 301.05 265.06 312.48
  C 265.84 319.13 267.74 329.27 273.41 333.14
  C 276.43 335.21 282.69 336.64 285.86 333.84
  C 290.69 329.56 292.14 320.82 292.79 314.76
  C 295.66 288.18 293.09 261.22 291.72 234.66
  A 0.45 0.44 -85.1 0 1 292.26 234.20
  L 344.59 246.00
  A 0.88 0.87 -85.3 0 1 345.28 246.82
  L 346.98 278.24
  Q 347.00 278.69 347.27 278.32
  C 362.96 256.21 383.41 238.02 410.48 233.39
  Q 426.35 230.67 439.50 232.26
  C 466.05 235.46 476.44 267.39 479.60 289.74
  Q 486.15 336.15 489.97 383.06
  A 0.37 0.37 0.0 0 1 489.71 383.45
  L 438.48 398.39
  Q 437.92 398.56 437.82 397.99
  L 436.29 389.25
  Q 436.17 388.59 435.54 388.83
  Q 413.29 397.27 391.01 397.02
  C 387.06 396.98 382.62 395.46 378.43 394.03
  C 357.63 386.94 347.12 367.90 347.02 346.51
  Q 346.96 334.56 354.23 325.42
  C 362.97 314.42 377.70 310.13 391.00 308.33
  Q 409.83 305.79 428.71 307.92
  Q 429.23 307.98 429.21 307.46
  C 428.96 300.80 428.00 285.24 422.33 280.81
  C 419.73 278.78 415.54 279.82 412.71 280.91
  C 400.01 285.78 390.18 296.50 381.04 306.12
  Q 380.70 306.47 380.32 306.17
  L 347.30 279.95
  A 0.27 0.26 -71.6 0 0 346.87 280.17
  Q 348.08 304.10 346.56 327.75
  Q 345.86 338.51 343.37 350.41
  C 341.86 357.64 339.27 363.15 334.60 369.12
  C 320.81 386.73 301.52 394.95 279.25 396.64
  C 261.16 398.02 245.00 391.10 232.48 378.44
  Q 228.54 374.46 225.79 369.08
  C 214.97 347.93 213.08 325.93 214.19 302.62
  Q 214.36 299.05 213.49 302.52
  Q 206.82 329.02 190.85 351.18
  Q 190.52 351.64 190.90 352.06
  L 202.23 364.78
  A 0.46 0.46 0.0 0 1 202.19 365.44
  L 168.69 395.18
  Q 168.37 395.46 168.03 395.19
  L 153.80 383.68
  Q 153.44 383.39 153.02 383.59
  Q 129.05 394.91 102.50 395.46
  Q 97.31 395.57 87.26 393.49
  C 30.47 381.73 13.07 313.03 22.33 264.26
  C 30.49 221.25 60.35 193.32 99.24 176.30
  Q 109.48 171.82 118.22 170.20
  C 132.97 167.46 148.14 168.46 162.75 172.34
  C 183.56 177.85 200.06 191.51 209.19 210.87
  C 214.06 221.21 216.00 233.43 216.98 245.11
  Q 217.00 245.34 217.22 245.33
  L 217.23 245.33
  Q 217.31 245.32 217.32 245.12
  Z
  M 135.20 279.09
  L 151.70 299.31
  Q 152.20 299.92 152.59 299.23
  C 161.09 284.16 166.14 262.64 160.88 245.54
  C 155.84 229.16 137.79 226.07 123.73 231.25
  C 109.18 236.61 98.17 250.13 90.36 263.18
  Q 86.18 270.18 84.38 277.27
  C 82.61 284.27 81.34 292.74 82.64 299.91
  C 85.21 314.06 91.35 324.54 106.11 326.63
  C 111.69 327.41 117.81 326.00 123.37 324.44
  Q 123.90 324.29 123.76 323.75
  L 115.97 293.98
  A 0.90 0.89 64.2 0 1 116.29 293.04
  L 134.29 278.98
  A 0.66 0.65 51.3 0 1 135.20 279.09
  Z
  M 394.73 349.12
  C 393.48 361.83 425.92 355.41 431.89 354.09
  Q 432.38 353.99 432.33 353.49
  L 430.91 339.23
  Q 430.85 338.66 430.28 338.65
  C 421.31 338.51 396.00 336.24 394.73 349.12
  Z"
/>
<path fill="#4f9ed5" d="
  M 134.29 278.98
  L 116.29 293.04
  A 0.90 0.89 64.2 0 0 115.97 293.98
  L 123.76 323.75
  Q 123.90 324.29 123.37 324.44
  C 117.81 326.00 111.69 327.41 106.11 326.63
  C 91.35 324.54 85.21 314.06 82.64 299.91
  C 81.34 292.74 82.61 284.27 84.38 277.27
  Q 86.18 270.18 90.36 263.18
  C 98.17 250.13 109.18 236.61 123.73 231.25
  C 137.79 226.07 155.84 229.16 160.88 245.54
  C 166.14 262.64 161.09 284.16 152.59 299.23
  Q 152.20 299.92 151.70 299.31
  L 135.20 279.09
  A 0.66 0.65 51.3 0 0 134.29 278.98
  Z
  M 127.32 259.97
  Q 128.91 260.36 130.08 259.34
  Q 130.47 259.00 130.98 259.00
  L 138.02 258.99
  Q 138.55 258.99 138.99 259.30
  Q 140.44 260.34 142.31 259.98
  Q 142.88 259.88 142.85 259.30
  C 142.74 256.66 142.41 250.26 138.95 249.61
  C 126.26 247.21 114.18 263.40 108.63 272.58
  Q 108.16 273.37 108.89 272.81
  C 114.43 268.49 120.16 263.34 126.50 260.07
  Q 126.89 259.86 127.32 259.97
  Z"
/>
<path fill="#ffffff" d="
  M 911.33 362.15
  Q 911.83 363.83 911.90 362.08
  L 916.41 243.48
  A 0.47 0.45 86.1 0 1 916.77 243.05
  L 972.49 231.15
  A 0.34 0.34 0.0 0 1 972.90 231.49
  L 971.39 271.98
  A 0.25 0.24 -21.4 0 0 971.81 272.16
  C 982.55 261.37 1001.74 244.37 1017.57 243.21
  Q 1018.18 243.16 1018.47 243.71
  L 1040.73 285.75
  A 0.39 0.39 0.0 0 1 1040.48 286.31
  C 1012.58 293.28 988.08 308.45 973.71 333.96
  Q 972.73 335.70 972.80 337.78
  Q 973.67 366.57 974.45 395.54
  Q 974.46 396.01 974.00 396.01
  L 911.06 396.00
  A 0.43 0.43 0.0 0 1 910.63 395.56
  L 911.77 364.50
  Q 911.80 363.61 911.18 364.25
  C 886.78 389.51 853.76 404.96 817.80 398.95
  Q 810.50 397.73 804.20 394.66
  C 780.97 383.37 766.42 362.46 760.87 337.62
  Q 758.77 328.26 759.12 317.78
  C 759.59 303.40 762.12 288.07 767.55 274.87
  Q 769.30 270.63 771.76 267.06
  C 785.30 247.46 804.79 235.23 829.00 234.49
  Q 839.37 234.17 844.24 234.30
  C 860.15 234.74 878.36 239.72 889.96 251.09
  Q 910.24 270.96 909.96 300.90
  Q 909.95 301.41 909.49 301.62
  L 820.40 342.41
  A 0.32 0.31 -33.0 0 0 820.29 342.90
  C 825.46 348.73 836.08 349.47 843.23 349.85
  C 863.78 350.93 884.60 336.48 899.18 323.51
  A 0.50 0.50 0.0 0 1 899.99 323.75
  L 911.33 362.15
  Z
  M 807.38 303.65
  L 859.28 280.63
  A 0.53 0.52 -33.2 0 0 859.46 279.79
  Q 849.87 269.30 835.50 270.13
  Q 826.49 270.65 823.31 272.05
  C 810.52 277.70 805.50 289.99 806.88 303.36
  A 0.36 0.36 0.0 0 0 807.38 303.65
  Z"
/>
<path fill="#ffffff" d="
  M 491.78 282.50
  C 496.99 263.31 509.44 246.46 528.00 238.64
  Q 535.85 235.34 547.39 234.02
  C 576.58 230.67 605.34 236.57 626.13 258.55
  Q 626.51 258.95 626.12 259.35
  L 594.91 291.90
  Q 594.38 292.45 593.80 291.97
  C 578.16 278.97 551.23 275.91 543.49 300.01
  C 539.06 313.79 540.11 331.74 555.00 338.45
  C 568.37 344.48 582.03 336.90 591.44 327.48
  A 0.76 0.75 44.2 0 1 592.50 327.47
  L 619.59 353.44
  Q 620.01 353.84 619.70 354.34
  C 604.74 378.16 581.56 393.97 553.24 396.58
  Q 541.84 397.63 533.28 396.33
  C 500.85 391.41 488.14 357.55 487.03 328.50
  C 486.46 313.45 487.76 297.29 491.78 282.50
  Z"
/>
<path fill="#4f9ed5" d="
  M 859.28 280.63
  L 807.38 303.65
  A 0.36 0.36 0.0 0 1 806.88 303.36
  C 805.50 289.99 810.52 277.70 823.31 272.05
  Q 826.49 270.65 835.50 270.13
  Q 849.87 269.30 859.46 279.79
  A 0.53 0.52 -33.2 0 1 859.28 280.63
  Z"
/>
<path fill="#4f9ed5" d="
  M 431.89 354.09
  C 425.92 355.41 393.48 361.83 394.73 349.12
  C 396.00 336.24 421.31 338.51 430.28 338.65
  Q 430.85 338.66 430.91 339.23
  L 432.33 353.49
  Q 432.38 353.99 431.89 354.09
  Z"
/>
<path fill="#caa501" d="
  M 519.98 414.08
  Q 519.17 420.72 516.56 425.28
  C 513.43 430.74 509.55 435.94 503.50 439.01
  C 486.85 447.47 468.08 450.28 447.99 451.16
  C 437.71 451.60 427.88 452.32 417.33 451.98
  C 406.41 451.62 395.55 451.79 384.56 451.48
  Q 370.59 451.08 356.65 451.49
  A 1.42 1.40 4.3 0 0 355.31 452.63
  L 354.70 455.70
  A 1.27 1.26 30.8 0 0 354.97 456.74
  Q 361.42 464.51 364.54 466.71
  C 378.87 476.84 395.27 482.27 412.28 485.90
  Q 434.15 490.56 456.28 493.75
  C 459.99 494.28 464.90 494.70 469.20 495.39
  Q 474.20 496.18 478.87 496.65
  C 483.86 497.14 489.04 498.10 493.74 498.44
  Q 511.52 499.73 529.25 500.33
  Q 541.08 500.73 552.91 500.48
  C 561.85 500.29 570.95 500.06 579.38 499.58
  Q 597.72 498.54 616.03 496.97
  Q 631.76 495.62 647.24 492.49
  Q 654.62 491.00 662.02 489.66
  C 664.35 489.24 666.21 488.08 668.74 487.69
  C 676.16 486.55 683.18 484.37 690.71 483.52
  C 685.11 486.57 679.22 488.18 673.61 491.07
  C 668.73 493.59 663.38 494.91 658.75 496.57
  C 639.76 503.38 620.56 508.37 600.87 512.74
  C 592.58 514.59 583.85 515.60 575.26 516.91
  C 551.47 520.54 527.24 521.31 503.22 520.46
  C 490.67 520.01 477.43 518.94 465.16 516.91
  Q 437.38 512.32 428.00 509.73
  Q 418.60 507.13 409.21 504.45
  Q 400.71 502.02 391.53 498.34
  C 382.04 494.53 372.40 491.13 363.40 486.63
  C 353.07 481.46 342.14 476.57 332.83 469.66
  Q 323.34 462.62 314.60 454.67
  Q 312.52 452.79 311.21 449.54
  C 308.28 442.33 306.91 432.23 312.58 426.33
  C 320.14 418.45 337.60 425.50 346.95 426.96
  C 375.39 431.42 402.86 429.56 431.06 423.45
  C 441.67 421.15 452.03 417.48 462.43 414.48
  Q 464.07 414.00 465.88 413.24
  C 472.37 410.53 479.10 408.38 485.72 405.99
  L 497.01 402.67
  A 1.71 1.70 -34.2 0 1 498.52 402.95
  Q 503.02 406.41 508.18 409.35
  Q 514.10 412.73 519.98 414.08
  Z"
/>
<path fill="#000000" d="
  M 485.72 405.99
  C 479.10 408.38 472.37 410.53 465.88 413.24
  Q 464.07 414.00 462.43 414.48
  C 452.03 417.48 441.67 421.15 431.06 423.45
  C 402.86 429.56 375.39 431.42 346.95 426.96
  C 337.60 425.50 320.14 418.45 312.58 426.33
  C 306.91 432.23 308.28 442.33 311.21 449.54
  Q 312.52 452.79 314.60 454.67
  Q 323.34 462.62 332.83 469.66
  C 342.14 476.57 353.07 481.46 363.40 486.63
  C 372.40 491.13 382.04 494.53 391.53 498.34
  Q 400.71 502.02 409.21 504.45
  Q 418.60 507.13 428.00 509.73
  Q 437.38 512.32 465.16 516.91
  C 477.43 518.94 490.67 520.01 503.22 520.46
  C 527.24 521.31 551.47 520.54 575.26 516.91
  C 583.85 515.60 592.58 514.59 600.87 512.74
  C 620.56 508.37 639.76 503.38 658.75 496.57
  C 663.38 494.91 668.73 493.59 673.61 491.07
  C 679.22 488.18 685.11 486.57 690.71 483.52
  C 697.95 481.18 704.41 477.43 711.14 473.93
  C 718.93 469.88 738.58 458.55 734.82 447.23
  C 732.47 440.13 722.69 437.88 716.00 438.48
  Q 703.25 439.63 690.50 440.75
  Q 670.56 442.52 644.72 438.47
  C 623.79 435.19 608.50 430.74 590.49 425.78
  C 585.28 424.35 578.08 420.34 570.88 417.72
  Q 568.38 416.81 565.94 415.40
  C 573.45 413.83 581.16 412.08 587.97 408.60
  Q 588.72 408.82 589.03 409.66
  A 0.54 0.53 -10.3 0 0 589.53 410.00
  L 591.01 410.00
  Q 591.61 410.00 591.98 410.48
  Q 592.54 411.20 593.54 411.02
  Q 594.04 410.93 594.48 411.18
  Q 597.71 412.99 600.46 413.63
  Q 608.96 415.61 615.25 418.01
  C 619.18 419.51 625.87 419.56 631.76 421.05
  C 638.49 422.74 645.15 423.85 651.98 425.05
  C 669.53 428.13 688.58 427.44 706.26 425.62
  C 716.25 424.60 725.11 424.55 734.45 427.32
  C 740.25 429.04 746.53 436.94 749.01 442.25
  C 750.21 444.81 750.34 448.23 749.80 451.20
  Q 747.29 464.92 736.61 474.13
  C 729.94 479.88 723.14 483.41 715.37 487.48
  C 712.70 488.88 706.84 492.55 702.27 494.53
  C 697.48 496.60 693.69 498.57 689.35 500.51
  C 685.85 502.08 679.94 503.64 675.43 505.75
  Q 671.78 507.45 669.97 508.12
  Q 644.43 517.56 633.00 520.29
  Q 624.47 522.34 615.95 524.47
  C 609.82 526.00 602.66 527.25 596.00 528.76
  Q 591.63 529.75 587.95 530.26
  Q 568.11 533.00 562.50 533.55
  C 537.27 536.03 507.81 535.19 480.75 533.59
  C 473.67 533.17 465.45 531.57 459.74 530.81
  C 439.94 528.18 420.80 523.18 401.77 517.22
  C 399.91 516.63 398.07 515.61 396.38 515.06
  Q 375.99 508.36 363.04 502.13
  Q 342.53 492.25 325.19 481.07
  C 313.01 473.21 299.87 461.31 296.15 447.01
  C 293.08 435.18 296.76 422.36 306.28 414.30
  Q 306.58 414.05 306.96 414.01
  Q 307.13 413.99 307.30 413.99
  Q 307.61 413.99 307.80 413.77
  L 310.23 410.95
  L 315.91 408.85
  Q 321.44 409.04 326.85 409.03
  C 333.86 409.02 340.86 411.10 347.88 411.90
  C 352.72 412.46 357.81 414.35 363.41 414.00
  C 364.19 413.95 364.68 414.21 365.26 414.64
  A 1.29 1.27 -27.0 0 0 366.05 414.89
  L 375.32 414.60
  Q 383.04 417.04 385.74 417.03
  C 398.93 417.03 409.67 417.07 424.02 413.65
  Q 424.57 413.52 424.80 414.04
  Q 425.10 414.71 425.92 414.56
  Q 426.41 414.47 426.73 414.84
  C 429.01 417.41 430.89 417.25 433.72 418.03
  C 438.53 419.36 444.33 418.32 448.99 416.84
  C 461.14 412.99 473.50 409.68 485.72 405.99
  Z"
/>
<path fill="#fecb00" d="
  M 519.98 414.08
  C 534.81 418.31 550.81 417.49 565.94 415.40
  Q 568.38 416.81 570.88 417.72
  C 578.08 420.34 585.28 424.35 590.49 425.78
  C 608.50 430.74 623.79 435.19 644.72 438.47
  Q 670.56 442.52 690.50 440.75
  Q 703.25 439.63 716.00 438.48
  C 722.69 437.88 732.47 440.13 734.82 447.23
  C 738.58 458.55 718.93 469.88 711.14 473.93
  C 704.41 477.43 697.95 481.18 690.71 483.52
  C 683.18 484.37 676.16 486.55 668.74 487.69
  C 666.21 488.08 664.35 489.24 662.02 489.66
  Q 654.62 491.00 647.24 492.49
  Q 631.76 495.62 616.03 496.97
  Q 597.72 498.54 579.38 499.58
  C 570.95 500.06 561.85 500.29 552.91 500.48
  Q 541.08 500.73 529.25 500.33
  Q 511.52 499.73 493.74 498.44
  C 489.04 498.10 483.86 497.14 478.87 496.65
  Q 474.20 496.18 469.20 495.39
  C 464.90 494.70 459.99 494.28 456.28 493.75
  Q 434.15 490.56 412.28 485.90
  C 395.27 482.27 378.87 476.84 364.54 466.71
  Q 361.42 464.51 354.97 456.74
  A 1.27 1.26 30.8 0 1 354.70 455.70
  L 355.31 452.63
  A 1.42 1.40 4.3 0 1 356.65 451.49
  Q 370.59 451.08 384.56 451.48
  C 395.55 451.79 406.41 451.62 417.33 451.98
  C 427.88 452.32 437.71 451.60 447.99 451.16
  C 468.08 450.28 486.85 447.47 503.50 439.01
  C 509.55 435.94 513.43 430.74 516.56 425.28
  Q 519.17 420.72 519.98 414.08
  Z"
/>
</svg>
