<?xml version="1.0" encoding="UTF-8" standalone="no"?>
<!-- Created with Inkscape (http://www.inkscape.org/) -->

<svg
   version="1.1"
   id="svg1"
   width="1060.6693"
   height="460.49933"
   viewBox="0 0 1060.6695 460.49933"
   sodipodi:docname="logo.svg"
   inkscape:version="1.3.2 (091e20e, 2023-11-25, custom)"
   xml:space="preserve"
   xmlns:inkscape="http://www.inkscape.org/namespaces/inkscape"
   xmlns:sodipodi="http://sodipodi.sourceforge.net/DTD/sodipodi-0.dtd"
   xmlns="http://www.w3.org/2000/svg"
   xmlns:svg="http://www.w3.org/2000/svg"><defs
     id="defs1" /><sodipodi:namedview
     id="namedview1"
     pagecolor="#ffffff"
     bordercolor="#000000"
     borderopacity="0.25"
     inkscape:showpageshadow="2"
     inkscape:pageopacity="0.0"
     inkscape:pagecheckerboard="0"
     inkscape:deskcolor="#d1d1d1"
     inkscape:zoom="0.70710678"
     inkscape:cx="461.74073"
     inkscape:cy="276.47875"
     inkscape:window-width="1920"
     inkscape:window-height="991"
     inkscape:window-x="-9"
     inkscape:window-y="-9"
     inkscape:window-maximized="1"
     inkscape:current-layer="svg1" /><g
     id="g8"
     inkscape:label="logo"
     inkscape:groupmode="layer"
     transform="translate(-224.00001,-214)"><g
       id="g2"
       inkscape:label="hills"
       transform="translate(238.02721,214)"><g
         id="layer5"
         inkscape:label="hills"
         transform="translate(-146.24702,-220.31297)"
         style="display:inline"><ellipse
           style="fill:#3c7e2b;fill-opacity:1"
           id="path4335"
           cx="274.28137"
           cy="402.0159"
           rx="102.03435"
           ry="104.57252"
           inkscape:label="hill1" /><ellipse
           style="display:inline;fill:#8cc063;fill-opacity:1;stroke-width:1.08323"
           id="path4035"
           cx="440.62595"
           cy="395.95419"
           rx="180.71756"
           ry="175.64122"
           inkscape:label="hill2" /><ellipse
           style="fill:#3c7e2b;fill-opacity:1"
           id="path4341"
           cx="720.83972"
           cy="381.74045"
           rx="169.54962"
           ry="136.04581"
           inkscape:label="hill3" /><ellipse
           style="display:inline;fill:#8cc063;fill-opacity:1;stroke-width:1.08323"
           id="ellipse1"
           inkscape:label="hill4"
           ry="133.10739"
           rx="158.09015"
           cy="405.21619"
           cx="996.83752" /></g><g
         id="layer6"
         inkscape:label="objects"
         transform="translate(-172.24702,-220.31297)"><rect
           style="fill:#800000;fill-opacity:1"
           id="rect4726"
           width="32.664555"
           height="34.100361"
           x="370.07864"
           y="226.85713" /><rect
           style="fill:#ff0000;fill-opacity:1"
           id="rect4834"
           width="23.242086"
           height="34.279835"
           x="382.82141"
           y="226.67766" /><rect
           style="fill:#ffffff;fill-opacity:1"
           id="rect4888"
           width="2.0305343"
           height="34.265266"
           x="383.00955"
           y="226.27768" /><rect
           style="fill:#ffffff;fill-opacity:1"
           id="rect4890"
           width="1.5229008"
           height="34.392174"
           x="405.59924"
           y="226.6584" /><rect
           style="fill:#ffffff;fill-opacity:1"
           id="rect4894"
           width="36.930344"
           height="2.0305343"
           x="369.68417"
           y="259.40076" /><rect
           style="fill:#ffffff;fill-opacity:1"
           id="rect4896"
           width="36.930344"
           height="2.0305343"
           x="369.68417"
           y="259.40076" /><rect
           style="fill:#ffffff;fill-opacity:1"
           id="rect4900"
           width="2.5223083"
           height="34.681469"
           x="368.79581"
           y="226.78157" /><path
           id="rect5006"
           style="fill:#ac9393"
           d="m 372.36295,223.48569 h 34.35985 l 7.95278,7.10687 h -49.68702 z"
           sodipodi:nodetypes="ccccc" /><path
           style="fill:#447821;fill-opacity:1"
           id="path5313"
           d="m 453.38365,290.805 c -1.70375,2.44638 -4.09273,4.3106 -6.42949,6.11921 -0.52953,0.40984 -1.08526,0.78557 -1.60788,1.2042 -0.37279,0.29862 -0.71756,0.63063 -1.07634,0.94594 -2.34049,5.7328 -1.08049,1.69166 12.75007,9.16344 0.46618,0.25184 1.05179,-0.13045 1.57919,-0.18152 2.0247,-0.19606 4.05626,-0.34855 6.08376,-0.51346 1.05587,-0.12492 2.1185,-0.18536 3.17489,-0.30523 0.27253,-0.0309 0.58326,0.0309 0.81455,-0.11652 0.28133,-0.17931 0.88573,-0.60246 0.61144,-0.79235 -12.00147,-8.30864 -8.21672,-8.93127 -13.90658,-7.72388 -0.95464,0.13765 -1.91462,0.23985 -2.86973,0.37229 -0.25644,0.0356 -1.13499,0.0879 -1.32911,0.45009 -0.23706,0.44233 -0.28261,0.96309 -0.42391,1.44464 4.45703,2.4967 8.85999,5.09245 13.37108,7.4901 0.27237,0.14476 0.61423,0.0601 0.91937,0.10529 0.39003,0.0577 0.77784,0.12996 1.16522,0.20336 1.39137,0.26363 2.77778,0.56027 4.16479,0.8458 0.37405,0.0845 0.75575,0.14024 1.12216,0.25334 0.22662,0.07 0.4322,0.19545 0.6483,0.29317 -4.16658,-2.6523 -8.38477,-5.22523 -12.49976,-7.9569 -0.12681,-0.0842 0.01,-0.41323 -0.14087,-0.43438 -0.37368,-0.0524 -0.73349,0.17771 -1.10172,0.26011 -0.48949,0.10952 -0.98086,0.21041 -1.47129,0.31562 -3.24292,0.57141 -6.49475,1.08398 -9.74679,1.59845 -0.43657,0.0704 -1.33888,0.19276 -1.79612,0.34401 -0.24411,0.0808 -0.46951,0.20978 -0.70544,0.312 -0.59964,0.25982 -1.1718,0.52546 -1.74471,0.84057 -1.0985,0.64049 -2.21488,1.24851 -3.32064,1.87773 -0.16195,0.11144 -0.36451,0.17963 -0.48585,0.3343 -0.17699,0.22559 -0.85536,1.49689 -0.34246,1.81634 12.3886,7.7159 9.06713,7.2519 16.70704,7.63133 3.52972,0.20349 7.05117,-0.13906 10.51591,-0.79696 1.58047,-0.25846 3.10589,-0.73755 4.64044,-1.17683 5.65402,-1.37275 3.05087,0.5239 -11.48152,-9.13994 -0.27833,-0.18508 -0.66737,0.0599 -1.00149,0.0504 -0.23129,-0.007 -3.28078,-0.27937 -3.31631,-0.2825 -1.85638,-0.16624 -3.714,-0.30927 -5.56695,-0.51162 -0.36324,-0.0397 -2.16077,-0.23137 -2.6385,-0.34918 -0.19015,-0.0469 -0.35838,-0.1581 -0.53758,-0.23714 4.15002,2.8058 8.23189,5.71512 12.45005,8.4174 0.13943,0.0893 0.32149,-0.0812 0.47795,-0.13535 0.94459,-0.32716 1.79834,-0.792 2.45554,-1.57114 0.26737,-0.31697 0.46094,-0.68947 0.69141,-1.0342 0.76814,-1.35236 1.48596,-2.77344 1.54533,-4.35056 -0.91725,-5.46039 -0.0264,-0.96364 -13.26657,-7.91964 -0.0889,-0.0467 -0.99186,0.49571 -1.01926,0.51992 -0.5014,0.44298 -0.83569,1.03269 -1.1999,1.58002 -1.10069,1.74508 -2.19521,3.49251 -3.35853,5.1968 -1.2033,1.59877 -2.45161,3.16071 -3.83124,4.61009 -3.84776,4.62661 4.48021,4.34516 12.29551,8.75405 0.16635,0.0939 0.28444,-0.25503 0.42935,-0.37946 0.4273,-0.36689 0.39229,-0.32844 0.8443,-0.66371 0.99539,-0.72531 1.97043,-1.47736 2.9856,-2.17704 0.39026,-0.16458 0.71656,-0.44782 1.09685,-0.62988 0.1251,-0.0599 0.5162,-0.0627 0.39512,-0.1304 -4.29138,-2.39754 -8.74344,-4.50111 -13.02087,-6.92345 -0.11557,-0.0654 0.24221,-0.43757 0.25587,-0.30545 0.0184,0.17766 -0.15853,0.32011 -0.2378,0.48017 -0.93631,1.37084 -2.08952,2.58071 -3.30464,3.7058 -0.49657,0.43542 -0.99936,0.872 -1.53866,1.255 -0.13041,0.0926 -0.68966,0.41616 -0.78965,0.56672 -0.15834,0.2384 -0.23232,0.5231 -0.34848,0.78465 0.0127,0.29294 -0.21036,0.72306 0.0381,0.87881 4.32111,2.70915 8.8229,5.12444 13.33358,7.50462 0.27169,0.14336 0.61427,0.0128 0.92143,0.0174 1.39459,0.021 2.76715,-0.0183 4.1592,-0.10778 2.2434,-0.20837 4.49248,-0.53261 6.68833,-1.04578 0.55867,-0.0894 1.03057,-0.25836 1.47343,-0.6104 0.1199,-0.0953 0.26557,-0.17433 0.34166,-0.30726 0.39587,-0.69159 0.34637,-0.97962 0.41815,-1.73214 -0.0113,-0.91744 -0.35349,-1.71681 -0.7828,-2.50695 -0.1069,-0.19676 -0.22675,-0.38621 -0.34056,-0.57906 -0.21672,-0.36723 -0.34314,-0.35096 -0.14574,-0.34891 -4.53963,-1.87055 -9.03999,-3.8394 -13.6189,-5.61165 -0.26193,-0.10138 0.40401,0.39048 0.61324,0.57785 0.81633,0.73104 1.69288,1.48251 2.64266,2.03631 4.41965,2.57697 8.86778,5.1048 13.30167,7.6572 1.45857,0.74919 3.08634,0.98992 4.65436,1.40389 0.64353,0.18645 1.25146,0.53429 1.91448,0.65928 0.12049,0.0227 0.28917,0.10393 0.36769,0.01 1.07649,-1.29106 0.97309,-1.06932 0.57762,-2.07702 -3.92515,-5.52598 -11.23684,-6.07349 -16.63555,-9.33685 4.05668,2.33325 8.11728,4.65969 12.17003,6.99974 0.13774,0.0795 -0.28895,-0.13466 -0.42448,-0.2179 -0.13791,-0.0847 -0.27338,-0.17598 -0.39345,-0.28449 -0.49292,-0.44543 -0.7193,-0.98828 -0.96199,-1.59028 -0.17856,-0.62091 -0.25735,-0.7997 -0.33781,-1.42133 -0.0155,-0.12004 -0.0195,-0.24207 -0.0124,-0.36291 0.003,-0.043 0.0315,-0.16446 0.0408,-0.12245 0.0126,0.057 -0.014,0.11641 -0.0297,0.1727 -0.0422,0.15212 -0.0957,0.30089 -0.14352,0.45133 -1.22196,5.15791 0.003,0.55821 -12.78212,-6.95879 -0.0564,-0.0332 0.14101,-0.0186 0.19548,0.0176 0.0142,0.009 0.15107,0.33738 0.27772,0.25412 0.0844,-0.0555 0.0993,-0.17586 0.149,-0.26379 -1.91279,1.48537 -4.02461,2.66863 -6.16168,3.79652 -1.38944,0.70898 -2.74926,1.47604 -4.1635,2.13603 -0.85923,0.40098 -1.73523,0.76555 -2.59396,1.16848 -1.0496,0.3975 -2.13377,0.64713 -3.1779,1.06804 -0.61953,0.23543 -1.29501,0.37544 -1.87702,0.70544 -0.64628,0.36644 -1.21221,0.90166 -1.81434,1.3348 -0.28519,0.29244 -1.2685,0.64587 -1.48701,0.96535 -2.90434,4.24632 8.17535,6.31349 12.67933,8.79958 0.24126,0.13317 0.53497,-0.13257 0.80246,-0.19885 2.28817,-0.2247 4.4957,-0.87407 6.7112,-1.45375 1.95319,-0.52424 3.95894,-0.7348 5.97388,-0.79855 1.56997,-0.17368 3.02334,0.32827 4.47425,0.84663 -0.28703,-0.29081 1.37476,0.76302 1.0332,0.56846 -4.03016,-2.29572 -16.00703,-9.37436 -12.07422,-6.91561 4.56902,2.8565 9.54288,5.62721 14.38926,8.27028 0.2004,0.0986 0.40573,0.18767 0.6012,0.29568 0.16993,0.0939 0.66186,0.40601 0.49355,0.30925 -4.08405,-2.34789 -8.15851,-4.71243 -12.24111,-7.06283 -0.13071,-0.0753 0.25868,0.15528 0.38525,0.23729 0.74204,0.48079 -0.0532,-8.4e-4 0.66666,0.42658 4.3486,2.5116 8.68462,5.04511 13.0458,7.5348 0.10064,0.0575 0.21964,0.075 0.33224,0.1024 0.88838,0.21631 0.98893,-0.26327 1.31983,-1.305 0.0772,-0.24306 -0.003,-0.51005 -0.005,-0.76507 -0.0948,-0.33167 -0.16252,-0.67233 -0.28446,-0.99501 -0.27419,-0.72553 -0.82418,-1.74413 -1.19129,-2.41489 -0.54577,-0.99723 -1.13637,-1.96917 -1.70864,-2.95118 -3.18634,-5.02814 -1.19376,-2.14289 -13.98431,-8.38687 -0.49594,-0.2421 -1.09433,0.14713 -1.63722,0.24635 -1.98215,0.36224 -3.94396,0.86157 -5.89841,1.34649 -1.78042,0.4683 -3.55327,0.96501 -5.33799,1.41694 -0.99439,0.2518 -1.99587,0.46348 -2.98532,0.73334 -0.94446,0.32454 -1.93963,0.31833 -2.92513,0.32792 -0.61791,-0.0163 -1.23934,-0.0328 -1.8477,0.10104 -0.24973,0.0549 -0.48874,0.15054 -0.73391,0.22314 -0.77265,0.14753 -0.71965,0.47789 -1.15627,1.28051 0,0 13.62801,6.41057 13.62801,6.41057 v 0 c -0.77097,1.06984 -0.89082,0.94791 -0.18341,0.77792 0.75206,-0.15316 1.52639,-0.0776 2.28744,-0.15662 1.07001,-0.0793 2.11301,-0.21188 3.07697,-0.72401 2.46201,-1.0082 4.98232,-1.89831 7.57373,-2.5104 1.89526,-0.43051 3.96539,-0.99413 5.92774,-0.9158 0.53515,0.0214 2.02635,0.56748 1.58484,0.26432 -14.09171,-9.67587 -14.19228,-9.87739 -10.65317,-6.28985 1.18573,1.80606 2.49041,3.57758 3.20226,5.63887 0.16148,0.45835 0.13943,0.66663 0.63413,-0.35879 0.0204,-0.0423 -0.56359,-0.40719 -0.62887,-0.45522 4.14186,2.39648 8.28372,4.79297 12.42558,7.18945 -0.46074,-0.28816 -0.2211,-0.15051 -0.72007,-0.41097 -4.78876,-2.85179 -9.55248,-5.78605 -14.49224,-8.38076 -0.20514,-0.11499 -0.41054,-0.22952 -0.61543,-0.34497 -0.2072,-0.11674 -0.82662,-0.47077 -0.62082,-0.35158 4.00232,2.31803 16.0769,9.1516 12.01041,6.94809 -4.09174,-2.21718 -9.09474,-6.511 -14.33465,-7.94986 -1.5497,-0.38834 -3.11806,-0.54888 -4.71296,-0.34897 -2.00021,0.23749 -3.99155,0.53303 -5.91555,1.15486 -2.20488,0.55985 -4.44258,1.10574 -6.73722,0.97488 -5.42431,-1.58867 1.26986,0.30188 11.46531,7.41363 0.19958,0.13921 -0.35376,0.3343 -0.52658,0.50562 -0.0847,0.084 0.16819,-0.17017 0.26223,-0.24358 0.33709,-0.26314 0.71652,-0.46937 1.03694,-0.7554 0.47773,-0.34522 0.65781,-0.50138 1.17879,-0.77564 0.72702,-0.38273 1.52181,-0.62477 2.29472,-0.89154 0.60155,-0.17069 1.23833,-0.29733 1.82576,-0.51269 0.51473,-0.1887 0.97448,-0.5149 1.45699,-0.76642 2.05935,-1.24936 4.09957,-2.53734 6.24985,-3.62765 1.48632,-0.78127 2.9805,-1.54646 4.47198,-2.31779 0.2973,-0.15376 1.73353,-0.88124 2.09944,-1.1253 0.24728,-0.16493 0.46261,-0.37334 0.69392,-0.56001 0.18027,-0.29453 0.40538,-0.56594 0.54081,-0.88359 0.051,-0.11963 0.029,-0.26287 0.002,-0.39014 -0.0149,-0.0712 -0.10097,-0.1113 -0.12214,-0.18091 -0.0342,-0.11258 0.0607,-0.28924 -0.0396,-0.35077 -12.85411,-7.88603 -8.77191,-10.35649 -13.38942,-7.36271 -0.30493,0.33754 -0.55792,0.53738 -0.70781,0.97048 -0.30212,0.87298 0.17493,1.80772 0.24946,2.66932 0.0299,0.13979 0.28301,1.34315 0.3343,1.50289 1.70978,5.32477 15.0305,5.99018 13.99159,9.08808 5.15293,2.41124 13.46879,7.22176 -8.68355,-5.34269 0.80307,-0.37959 0.54312,-0.17696 1.29706,-1.46539 0.0222,-0.0379 -0.0723,-0.0517 -0.11361,-0.0666 -0.14548,-0.0524 -0.29595,-0.0897 -0.44403,-0.13413 -0.84458,-0.25371 -0.44852,-0.14089 -1.3633,-0.38076 -1.48363,-0.39043 -2.97202,-0.77175 -4.30286,-1.56903 3.79934,2.20872 7.60013,4.41493 11.398,6.62617 0.32045,0.18658 -0.65069,-0.35655 -0.96571,-0.55216 -0.65789,-0.4085 -0.96172,-0.64373 -1.5337,-1.13208 -0.1452,-0.12397 -0.24849,-0.30861 -0.42289,-0.38631 -4.6528,-2.07288 -9.35398,-4.03538 -14.03098,-6.05306 0.90678,0.63931 1.58882,1.62211 2.04689,2.61534 0.0142,0.14656 0.0255,0.29342 0.0425,0.43968 0.003,0.03 0.0388,0.0657 0.019,0.0885 -0.26052,0.30023 -0.97967,0.32601 -1.30052,0.50794 -1.98904,0.56433 -4.01605,1.00387 -6.09027,1.08163 -1.43704,10e-4 -2.8654,-0.0102 -4.27555,-0.3353 -0.31647,-0.073 -1.20578,-0.46431 -0.92847,-0.29527 12.07192,7.35852 15.92444,4.40644 11.54347,7.4822 -0.10801,0.0764 -0.19702,0.26602 -0.32404,0.22909 -0.11495,-0.0334 0.17098,-0.1677 0.26003,-0.2477 0.64623,-0.58054 1.31636,-1.13704 1.90568,-1.77821 0.61129,-0.6246 1.24557,-1.24338 1.82334,-1.89917 0.57964,-0.65791 1.10178,-1.36999 1.70267,-2.01073 0.12294,-0.14807 1.32708,-1.51822 1.1001,-1.66552 -13.07619,-8.4853 -9.26008,-9.73002 -14.64022,-6.1814 -0.39478,0.26651 -0.80086,0.5161 -1.19383,0.78527 -0.62618,0.4289 -1.19674,0.94099 -1.86873,1.303 -0.12072,0.0675 -0.58666,0.36731 -0.78727,0.35548 -0.0728,-0.004 -0.23019,-0.17838 -0.16843,-0.13961 4.18012,2.62425 8.38445,5.21093 12.52509,7.89705 0.0661,0.0429 -0.20362,0.1621 -0.22057,0.0851 -0.0272,-0.12352 0.10932,-0.22811 0.16398,-0.34217 1.15932,-1.6373 2.24736,-3.32918 3.57843,-4.8378 0.41214,-0.50392 1.02906,-1.2279 1.39615,-1.78541 0.71038,-1.07887 1.17946,-2.31968 2.06594,-3.28604 0.39701,-0.38055 0.49718,-0.6212 1.00644,-0.72078 0.11073,-0.0217 0.22946,-0.0167 0.33823,0.0133 0.0983,0.0271 0.35293,0.20439 0.26477,0.15316 -12.60997,-7.32853 -17.17675,-6.08618 -12.14016,-7.3572 0.0883,0.0277 0.20213,0.0151 0.26483,0.0832 0.15968,0.17331 0.13479,0.68375 0.11664,0.84572 -0.0933,0.83274 -0.4449,1.60134 -0.84671,2.32527 -0.71358,0.89931 -0.88176,1.09475 -2.00419,1.45391 -0.26951,0.0862 -0.54916,0.13716 -0.82157,0.21377 -0.27708,0.0779 -1.05037,0.0688 -0.8266,0.24981 3.82055,3.09091 7.93156,5.80446 11.89734,8.70669 0.70462,-0.20319 1.93507,-0.0299 2.62704,0.0138 1.81826,0.11481 3.637,0.24603 5.44466,0.47859 1.00767,0.15136 2.64054,0.36219 3.64914,0.64042 0.40628,0.11207 1.51361,0.70908 1.18193,0.44906 -12.00691,-9.41286 -7.15768,-10.25359 -12.43458,-8.3626 -1.3795,0.48867 -2.78388,0.9085 -4.19283,1.30279 -3.28146,0.75603 -6.63748,1.07184 -9.99525,0.63606 -0.62405,-0.093 -1.2533,-0.1562 -1.87216,-0.27913 -0.51361,-0.10201 -1.96107,-0.67784 -1.52054,-0.39475 3.81107,2.449 7.92113,4.41757 11.69064,6.93009 0.21526,0.14348 -0.42585,0.29411 -0.64428,0.43273 -0.0965,0.0612 -0.37022,0.25614 -0.29965,0.16631 0.0928,-0.11809 0.24695,-0.17094 0.37043,-0.25641 1.08708,-0.61824 2.15956,-1.26431 3.27672,-1.82739 1.19592,-0.56394 2.40123,-1.07819 3.6964,-1.37919 3.1527,-0.7525 6.3603,-1.24933 9.57169,-1.67582 0.5382,-0.0688 1.07579,-0.14256 1.61461,-0.20636 0.46875,-0.0555 0.96032,-0.002 1.40794,-0.15149 0.48972,-0.16389 1.7466,-0.44551 1.34456,-0.76963 -11.77297,-9.49123 -7.74881,-7.39843 -13.91622,-8.35875 -1.83292,-0.34359 -3.68178,-0.70255 -5.4769,-1.21383 -4.59012,-1.30732 -12.66193,-7.14829 11.12335,6.75427 -0.29659,0.36317 -1.35903,1.18121 -0.90117,1.08011 1.16519,-0.25728 2.35579,-0.34978 3.5478,-0.37154 5.70124,0.4955 -0.59054,0.0757 -11.33714,-7.76498 -0.2261,-0.16496 0.4588,-0.34854 0.59364,-0.5938 0.0701,-0.12757 -0.24336,0.16843 -0.38279,0.2103 -0.78873,0.23683 -2.00982,0.37401 -2.77334,0.48419 -1.97477,0.19188 -4.15604,0.46331 -6.13316,0.20039 -0.56456,-0.0751 -2.11944,-0.74669 -1.65795,-0.41292 6.57796,4.75743 15.57585,9.81587 10.96668,7.21792 0.20035,-0.32661 0.34962,-0.69071 0.60105,-0.97984 0.50629,-0.5822 2.69382,-2.45406 3.17163,-2.85786 1.80465,-1.52514 3.65521,-2.99967 5.60825,-4.33195 0,0 -12.54013,-7.50485 -12.54013,-7.50485 z" /><circle
           id="path5315"
           style="fill:#447821;stroke:#000000"
           cx="469.81488"
           cy="316.25574"
           r="0.12777884" /><path
           style="fill:#447821;fill-opacity:1"
           id="path5317"
           d="m 463.17274,314.46241 c -0.0953,0.76895 -0.56933,1.23078 -1.28727,1.43431 -0.097,-0.003 -0.19402,-0.007 -0.29102,-0.01 0,0 12.30834,8.38758 12.30834,8.38758 v 0 c 0.13468,-0.0754 0.26935,-0.15074 0.40403,-0.22611 0.94957,-0.64456 1.55355,-1.42343 2.02877,-2.4676 0,0 -13.16285,-7.1182 -13.16285,-7.1182 z" /><path
           style="fill:#447821;fill-opacity:1"
           id="path5319"
           d="m 475.55949,319.41358 c -4.77506,-3.60526 -0.48234,-0.40805 -14.04064,-8.20306 -0.31071,-0.17864 -0.62342,-0.35381 -0.93605,-0.52908 -0.33573,-0.18822 -1.34228,-0.75394 -1.009,-0.56141 12.14891,7.01835 14.94386,8.75848 10.3882,5.94326 -0.70295,-0.43535 -1.38442,-0.90088 -2.05146,-1.38875 0,0 -13.63871,-5.39144 -13.63871,-5.39144 v 0 c 0.73842,0.52191 1.44294,1.09099 2.22551,1.54814 5.24313,3.39832 0.78148,0.52884 14.27595,8.33692 0.34364,0.19883 0.69034,0.39233 1.03563,0.58829 0.33279,0.18887 1.32968,0.75805 0.99861,0.56619 -3.87401,-2.24506 -7.76281,-4.46469 -11.62747,-6.72581 -0.1551,-0.0907 0.33024,0.1418 0.49536,0.2127 0,0 13.88407,5.60405 13.88407,5.60405 z" /><path
           style="fill:#447821;fill-opacity:1"
           id="path5321"
           d="m 460.84101,315.95528 c 0.36038,0.62608 0.63356,1.29166 1.00743,1.91199 0,0 13.82837,5.5462 13.82837,5.5462 v 0 c -0.11366,-0.0283 -0.23486,-0.0353 -0.34096,-0.0848 -0.46751,-0.21846 -0.73894,-0.74446 -0.8729,-1.21035 0,0 -13.62194,-6.163 -13.62194,-6.163 z" /><path
           style="fill:#447821;fill-opacity:1"
           id="path5323"
           d="m 476.82857,321.44411 c -0.14981,-0.13077 -0.46148,-0.40921 -0.62158,-0.52254 -4.28969,-3.03663 -9.09247,-5.27424 -13.6457,-7.89924 0,0 11.48852,9.27016 11.48852,9.27016 v 0 c -20.85574,-12.0622 -15.52192,-8.8626 -11.1053,-6.45242 0,0 13.88406,5.60404 13.88406,5.60404 z" /><path
           style="fill:#447821;fill-opacity:1"
           id="path5325"
           d="m 463.22571,311.76518 c 0.0277,0.0466 0.0631,0.0894 0.0831,0.13984 0.0239,0.0601 0.035,0.12471 0.0471,0.18826 0.0372,0.19611 0.0359,0.39762 -0.003,0.59342 -0.012,0.061 -0.0319,0.12021 -0.0479,0.18032 -0.0855,0.18603 -0.24692,0.31217 -0.38743,0.45413 0,0 13.01339,6.96022 13.01339,6.96022 v 0 c -0.094,-0.22127 -0.13812,-0.45751 -0.12034,-0.69862 0.0355,-0.20326 0.0562,-0.33153 0.1703,-0.50896 0.0654,-0.10167 0.10189,-0.15409 0.20668,-0.20988 0.0409,-0.0218 0.0865,-0.033 0.12973,-0.0495 0,0 -13.09213,-7.04923 -13.09213,-7.04923 z" /><path
           style="fill:#447821;fill-opacity:1"
           id="path5327"
           d="m 462.29992,315.84522 c 0.10721,0.20902 0.242,0.40605 0.32161,0.62706 0.14353,0.39844 0.17624,0.81385 0.10281,1.22919 -0.0525,0.29669 -0.20919,0.63561 -0.37276,0.88876 -0.0699,0.1082 -0.15899,0.20275 -0.23849,0.30413 -0.17855,0.20379 -0.39486,0.36117 -0.62196,0.50504 -0.0457,0.029 -0.0934,0.0548 -0.13872,0.0844 -0.0348,0.0227 -0.0667,0.0496 -0.10148,0.0725 0.0205,0.0209 -0.0829,0.0603 -0.0942,0.0294 -0.007,-0.0203 0.008,-0.0426 0.009,-0.0642 5e-5,-0.004 -0.005,-0.0107 -0.008,-0.008 -0.0119,0.0103 -0.0176,0.0261 -0.0271,0.0387 -0.0165,0.0219 -0.034,0.043 -0.0509,0.0645 -0.007,5.4e-4 -0.0175,-0.004 -0.0224,0.002 -0.0108,0.0125 -0.0125,0.0307 -0.0188,0.046 -0.0455,0.11206 -0.0178,0.0751 -0.0679,0.13291 -0.0165,0.0191 -0.0247,0.0532 -0.0497,0.0571 -0.0188,0.003 -0.0244,-0.0292 -0.0366,-0.0437 0,0 12.84129,7.65615 12.84129,7.65615 v 0 c 0.004,-0.0715 -10e-4,-0.14109 0.0578,-0.19458 0.006,-0.006 0.0175,0.007 0.0252,0.004 0.0514,-0.0229 0.0546,-0.0564 0.0777,-0.10506 0.0198,-0.0465 -0.009,0.0167 0.0461,-0.0642 0.0201,-0.0294 0.0396,-0.0596 0.0556,-0.0915 0.0752,-0.15045 0.0936,-0.22651 0.0799,-0.39124 0.002,-0.0495 0.003,-0.0991 0.006,-0.14852 0.005,-0.0641 0.0309,-0.12848 0.0196,-0.19173 -0.012,-0.0673 -0.0599,-0.12302 -0.0868,-0.18588 -0.13614,-0.3179 -0.24117,-0.64803 -0.30711,-0.98788 -0.0596,-0.40603 -0.10371,-0.591 -0.0928,-1.01047 0.01,-0.36602 0.0402,-0.71818 0.24115,-1.03931 0.0897,-0.14328 0.20565,-0.27835 0.34909,-0.36776 0.14726,-0.0918 0.3305,-0.10589 0.49576,-0.15883 0,0 -12.39309,-6.68795 -12.39309,-6.68795 z" /><path
           style="fill:#447821;fill-opacity:1"
           id="path5329"
           d="m 446.58936,295.90525 c -0.0244,0.0262 -0.0437,0.0583 -0.0732,0.0786 -0.0259,0.0178 -0.0593,0.0207 -0.0883,0.0324 -0.0376,0.0152 -0.0727,0.0368 -0.11157,0.0482 -0.14579,0.0427 -0.30188,0.0398 -0.45189,0.0414 -0.15573,-2.5e-4 -0.31122,-0.008 -0.46618,-0.0235 -0.12953,-0.0128 -0.17154,-0.0357 -0.30203,0.0128 -0.0617,0.0229 -0.11577,0.0627 -0.17366,0.0941 -0.24129,0.25465 -0.4281,0.54542 -0.55013,0.87511 -0.0563,0.15218 -0.12649,0.30354 -0.14475,0.46477 -0.0167,0.14704 0.028,0.29463 0.0421,0.44195 0,0 13.70133,5.51793 13.70133,5.51793 v 0 c -0.2567,0.38174 -0.50188,0.77072 -0.75008,1.15799 -0.007,0.018 -0.0325,0.0373 -0.0225,0.0541 0.0157,0.0263 0.12387,-0.008 0.18132,-0.0209 0.1672,-0.0369 0.33582,-0.0662 0.50291,-0.10372 0.17994,-0.047 0.36167,-0.10509 0.54469,-0.13871 0.0664,-0.0122 0.1341,-0.0155 0.2007,-0.0263 0.0519,-0.008 0.10208,-0.0294 0.15462,-0.0312 0.0422,-10e-4 0.0832,0.0144 0.12484,0.0215 0,0 -12.31816,-8.49658 -12.31816,-8.49658 z" /><path
           style="fill:#447821;fill-opacity:1"
           id="path5331"
           d="m 446.97008,296.03216 c -0.0871,0.13812 -0.218,0.23539 -0.36232,0.30974 -0.0394,0.0203 -0.0839,0.0288 -0.1247,0.046 -0.22807,0.0962 -0.0433,0.0387 -0.25126,0.0954 -4.89975,-1.20312 1.6072,0.38662 12.96117,7.0022 0.14491,0.0844 -0.17854,0.28544 -0.28758,0.41286 -0.0156,0.0182 -0.0516,0.0201 -0.0715,0.007 -0.01,-0.006 0.005,-0.10906 0.009,-0.14799 0.0288,-0.1421 0.11787,-0.20628 0.2333,-0.27701 0,0 -12.58644,-7.62111 -12.58644,-7.62111 v 0 c -0.12898,0.19752 -0.25309,0.39963 -0.416,0.57204 -0.0478,0.0637 -0.10011,0.12424 -0.14327,0.19116 -0.0992,0.15378 -0.55646,1.03308 -0.5432,1.04106 12.71411,7.64439 9.89824,10.88747 13.19746,7.02159 0.16022,-0.10448 0.37981,-0.2346 0.58044,-0.20498 0.0436,0.006 0.0819,0.0326 0.1228,0.0489 0,0 -12.31817,-8.49658 -12.31817,-8.49658 z" /><path
           style="fill:#447821;fill-opacity:1"
           id="path5333"
           d="m 443.22091,308.97342 c 0.29704,0.40456 0.44481,0.88406 0.50257,1.37854 0.0185,0.15834 0.0255,0.44058 0.0312,0.60457 -0.01,0.20302 -0.0568,0.39968 -0.11464,0.59349 -0.0344,0.11543 -0.0467,0.17005 -0.1125,0.26652 9.60713,5.94248 10.07945,12.08677 12.98766,7.42472 0.10739,-0.17216 0.29418,-0.51227 0.37533,-0.69029 0.16455,-0.361 0.22713,-0.57624 0.35652,-0.95515 0.046,-0.19082 0.10122,-0.37964 0.1379,-0.57246 0.0399,-0.20964 0.0556,-0.42327 0.0915,-0.63362 0.0327,-0.19164 0.0765,-0.38123 0.11447,-0.57192 0.035,-0.17607 0.0628,-0.35372 0.10443,-0.52834 0.0754,-0.31617 0.14798,-0.5002 0.25328,-0.79963 0.0611,-0.16028 0.13864,-0.37702 0.21634,-0.53504 0.025,-0.0509 0.0648,-0.0942 0.0859,-0.14687 0.006,-0.0161 -0.0118,-0.0351 -0.006,-0.0515 0.014,-0.043 0.0956,-0.10209 0.12067,-0.12343 0,0 -12.63251,-7.4651 -12.63251,-7.4651 v 0 c -0.11179,0.19081 -0.38824,0.64254 -0.42404,0.83873 -0.0154,0.0844 0.0219,0.17018 0.035,0.25497 0.0856,0.55722 0.0189,0.0224 0.0901,0.65631 0.0343,0.50252 0.045,0.93473 -0.01,1.43905 -0.0183,0.16903 -0.0299,0.33994 -0.0695,0.50529 -0.0751,0.3136 -0.19263,0.50978 -0.33409,0.78962 -0.16091,0.21387 -0.19641,0.31324 -0.42787,0.44098 -0.0657,0.0362 -0.13833,0.066 -0.21306,0.0724 -0.059,0.005 -0.14766,0.0142 -0.17337,-0.0392 -0.0433,-0.0898 -0.0748,-0.35022 0.0106,-0.29885 4.22623,2.54138 8.36127,5.2314 12.54191,7.84711 -0.0808,-0.19047 -0.0142,0.003 -0.0387,-0.28334 -0.005,-0.062 -0.0228,-0.12229 -0.0341,-0.18344 -0.051,-0.27583 -0.10242,-0.55177 -0.13516,-0.83054 -0.0101,-0.12253 -0.0165,-0.24543 -0.0304,-0.36759 -0.0436,-0.38289 -0.11015,-0.73684 -0.11015,-1.1267 -10e-6,-0.10688 -0.002,-0.21504 0.0167,-0.32022 0.0141,-0.0781 0.0544,-0.14915 0.0817,-0.22372 0,0 -13.28771,-6.36536 -13.28771,-6.36536 z" /><path
           style="fill:#447821;fill-opacity:1"
           id="path5335"
           d="m 978.69491,352.1231 c -4.40655,5.94518 -9.49867,11.34983 -14.38679,16.89732 -0.61725,0.74529 -2.33602,2.3602 -2.3708,3.68397 -0.013,0.49449 0.0891,1.14684 0.51994,1.38991 4.67824,2.63949 9.47573,5.11914 14.47934,7.07277 0.32312,0.12617 4.4357,-1.23118 4.61132,-1.28659 2.09338,-0.58701 4.05244,-1.53748 6.08927,-2.27941 0.18572,-0.0677 2.41489,-0.7778 2.7276,-0.94516 0.3545,-0.18973 0.64441,-0.48103 0.96662,-0.72154 1.56606,-1.73187 1.81081,-3.20883 1.54281,-5.45138 -0.34268,-2.25708 0.0563,-0.25811 -0.19856,-0.37119 -4.36069,-1.93487 -8.54517,-4.25697 -12.93276,-6.13003 -0.48448,-0.20682 0.78534,0.70508 1.13915,1.09535 0.3424,0.37769 2.85257,3.49303 3.08497,3.78031 1.32547,1.7878 2.93642,3.33636 4.36233,5.03717 0.11174,0.13328 0.23828,0.60871 0.28047,0.43998 0.43381,-1.73507 -0.29479,-1.49383 -1.67759,-2.16221 -4.74573,-1.90724 -9.23177,-4.36679 -13.8394,-6.56914 -0.62515,0.11113 -1.2796,0.11403 -1.87547,0.3334 -1.37131,0.50483 -2.71324,1.6776 -3.75963,2.62315 -2.09746,1.89532 -4.01986,4.00557 -6.00988,6.01142 -0.58543,0.59603 -1.1737,1.18927 -1.75629,1.78809 -1.84347,1.89483 -1.09684,1.18769 -2.83605,2.86985 -0.8968,0.86739 -1.78172,1.68281 -2.56507,2.65411 -1.32553,6.23898 -0.959,2.47522 13.89492,7.76428 0.54515,0.19412 0.98753,-0.60397 1.47055,-0.92267 2.23465,-1.47441 4.34858,-3.07049 6.44303,-4.73581 2.39052,-1.9638 4.78627,-3.92126 7.12366,-5.94847 1.5602,-1.35315 3.04866,-2.7326 4.72478,-3.93991 0.35488,0.16003 0.7412,0.26343 1.06463,0.48008 0.40206,0.26932 1.5162,1.18634 1.08764,0.96159 -3.77032,-1.97726 -7.34579,-4.31702 -11.14589,-6.23641 -0.55797,-0.28183 0.92903,0.83856 1.35842,1.29284 0.95976,1.0154 1.57439,1.91533 2.41,3.03954 2.40135,3.38028 4.72748,6.82232 6.76961,10.4336 0.005,-0.2633 0.15377,-0.56641 0.0145,-0.7899 -0.66779,-1.07145 -2.52063,-1.60284 -3.43904,-2.04602 -0.95415,-0.46044 -1.90072,-0.9371 -2.83706,-1.43275 -0.97792,-0.51765 -3.86515,-2.15602 -2.90472,-1.60661 3.16349,1.80964 6.34271,3.59162 9.51407,5.38743 -1.90875,-1.23637 -3.60959,-2.72942 -5.1437,-4.40075 -0.337,-0.36714 -0.55075,-0.87446 -0.97824,-1.13062 -4.48694,-2.68868 -8.91483,-5.5376 -13.6949,-7.66188 -0.52042,-0.23127 -0.94996,0.62839 -1.42494,0.94258 -0.42791,0.52432 -0.88758,1.02423 -1.28372,1.57295 -1.5308,2.12038 -2.74303,4.46655 -4.21369,6.62902 -1.42422,2.0942 -1.75419,2.42464 -3.3195,4.36589 -2.47896,2.82993 -0.7227,0.86741 -3.09127,3.41784 -0.36742,0.39563 -0.80365,0.73921 -1.09435,1.19419 -0.20118,0.31487 -0.6613,0.85969 -0.34922,1.06516 12.96653,8.53693 8.95412,9.50201 15.5504,7.02896 3.17638,-1.18673 6.12987,-2.85279 9.02626,-4.59467 0.60821,-0.36578 1.15374,-0.86444 1.82352,-1.09916 0.54322,-0.19037 1.14726,-0.0953 1.72089,-0.14295 0.56018,0.1618 1.14552,0.25362 1.68055,0.48542 0.58257,0.2524 2.20095,1.26692 1.6472,0.95634 -3.57214,-2.00352 -7.08733,-4.11053 -10.70255,-6.03524 -0.55675,-0.2964 1.02733,0.73437 1.50952,1.14096 1.19405,1.00687 1.58407,1.54007 2.62521,2.72081 1.52055,1.85508 2.87026,3.84366 4.18219,5.84918 0.38449,0.58777 0.74923,1.18826 1.13088,1.77788 0.23956,0.3701 0.34845,0.8849 0.73264,1.10114 4.33731,2.44119 8.86387,4.52972 13.29581,6.79458 -0.002,-0.67973 0.16132,-1.38008 -0.005,-2.03918 -0.14379,-0.57038 -2.8158,-5.76861 -2.82094,-5.77897 -2.29072,-4.61249 -4.34777,-9.28308 -6.31976,-14.03951 -1.66572,-4.23549 -3.15744,-8.53914 -4.50372,-12.8864 -0.45461,-1.46795 -1.50214,-4.46274 -1.58428,-6.07825 -4.56163,-1.72519 -8.92098,-4.13161 -13.68489,-5.17558 -0.70335,-0.15413 -0.0661,1.43869 -0.0827,2.15853 -0.0186,0.80631 -0.0111,1.61303 -0.0229,2.41946 -0.0287,1.9582 0.006,3.04168 -0.32184,4.97574 -0.14385,0.84788 -0.38132,1.6772 -0.57198,2.51581 -1.29063,4.8278 -4.15025,8.88049 -7.26329,12.69555 -0.42901,0.47608 -0.83732,0.97166 -1.28704,1.42823 -1.00319,1.01849 -1.45225,1.33291 -2.5624,2.16732 -0.88038,0.6617 -1.63795,1.0923 -2.25785,2.00272 4.40797,2.60255 8.62146,5.56689 13.2239,7.80766 0.41391,0.20152 0.73513,-0.55437 1.10151,-0.83311 1.2812,-0.97474 2.47471,-1.87094 3.70564,-2.92814 1.07163,-0.92039 3.31322,-3.02241 4.36463,-3.99975 1.62333,-1.45308 3.12277,-3.03234 4.64197,-4.59073 0.2667,-0.27357 1.12717,-0.60042 0.80901,-0.81194 -12.82177,-8.52418 -10.769,-11.61769 -13.55867,-6.17866 -2.54021,4.17069 -4.68019,8.56621 -6.81504,12.95304 -0.85769,1.77275 -1.79066,3.50707 -2.78848,5.20339 -0.11418,0.19411 -0.52211,0.47292 -0.32958,0.58975 4.3217,2.62254 8.86834,4.85508 13.30251,7.28263 3.29874,-4.27158 7.14563,-8.09063 10.9375,-11.92018 0.51174,-0.49166 1.55869,-2.07284 2.70509,-1.62062 0.39942,0.15755 1.23935,1.15405 0.85434,0.964 -3.84993,-1.90041 -7.40398,-4.38714 -11.32632,-6.13319 -0.63487,-0.28262 0.88182,1.07716 1.26731,1.65537 0.38481,0.57718 0.69242,1.20226 1.03864,1.80339 0.37675,0.79285 1.08263,2.20392 1.38199,3.08632 0.0402,0.11845 -0.0225,0.49102 0.0231,0.37454 0.11667,-0.29822 -0.0942,-1.07087 0.19811,-0.94004 11.29082,5.0542 15.64537,10.26808 11.19274,5.25054 -3.06111,-4.53867 -4.67962,-9.78715 -5.77255,-15.0979 -0.77356,-3.82194 -0.7851,-7.70855 -0.55317,-11.58126 0.0474,0.86346 0.006,-1.86971 0.26522,-1.40183 0,0 -13.00488,-7.56458 -13.00488,-7.56458 v 0 c -0.33084,0.73243 -0.35822,1.44532 -0.31084,2.25668 -0.0571,4.03123 -0.0745,8.07497 0.71194,12.05091 1.12183,5.37335 2.70976,10.6384 5.29864,15.50773 3.04013,5.98215 1.2561,3.17104 14.42939,9.25245 0.40374,0.18638 0.68786,-0.61134 0.85648,-1.02282 0.46871,-1.14383 -1.30266,-3.20789 -1.52332,-4.25589 -0.10464,-0.20413 -1.81198,-3.60486 -2.03525,-3.76306 -4.39665,-3.11524 -9.00379,-5.93649 -13.68863,-8.59873 -0.43657,-0.24809 -1.02185,-0.16909 -1.50601,-0.0359 -1.13538,0.31236 -2.03388,1.59938 -2.72942,2.36919 -3.57588,3.97595 -7.22592,7.93753 -11.32696,11.37885 4.11493,2.6653 8.14115,5.47282 12.34477,7.9959 0.15062,0.0904 0.0566,-0.34987 0.12326,-0.51238 0.13742,-0.33486 0.33145,-0.64376 0.48558,-0.97126 0.7013,-1.49013 1.34962,-3.00671 2.01936,-4.51101 1.93436,-4.39448 3.99867,-8.78276 6.95875,-12.59687 4.06184,-4.76652 2.02677,-1.66869 -11.78913,-8.87994 -0.31426,-0.16403 -0.38893,0.59387 -0.60831,0.87232 -0.51312,0.65126 -2.00945,2.33895 -2.5132,2.87237 -0.57736,0.61136 -1.18003,1.1983 -1.77005,1.79746 -2.07718,1.96071 -4.123,3.81982 -6.54933,5.34967 -0.57088,0.35995 -1.15336,0.70569 -1.76206,0.99714 -0.32461,0.15543 -1.31377,0.12202 -1.02558,0.33762 3.89388,2.91312 8.12675,5.34325 12.19013,8.01487 -0.46264,-0.0429 -0.27842,0.0193 0.46713,-0.64954 0.33432,-0.29991 0.69011,-0.57504 1.03084,-0.86765 1.02346,-0.87892 1.66081,-1.41886 2.59527,-2.42823 0.45364,-0.49001 0.86792,-1.01503 1.30188,-1.52255 3.02252,-4.1093 6.03379,-8.32008 7.40476,-13.31039 0.64159,-2.48304 0.80991,-2.69525 1.02562,-5.22155 0.13642,-1.59757 0.0722,-3.20721 0.18624,-4.80653 0.0434,-0.60927 0.69655,-1.46641 0.19959,-1.82156 -4.09359,-2.92546 -8.7606,-4.95125 -13.14091,-7.42688 1.7528,0.2555 0.81574,-0.15332 1.7672,2.57166 1.91196,5.47586 3.81367,10.95693 5.94967,16.35104 1.88244,4.65087 3.80175,9.27712 5.80138,13.87874 0.46198,1.06311 0.93106,2.12319 1.38375,3.19029 0.29011,0.68386 0.44028,1.43911 0.84454,2.06233 0.12799,0.1973 0.43878,0.16949 0.65816,0.25423 29.42751,16.15241 14.69361,9.7098 11.86749,6.02421 -0.44423,-0.57934 -0.79214,-1.22659 -1.19487,-1.83551 -1.31426,-1.98715 -2.62016,-3.98141 -3.99911,-5.92448 -5.15775,-6.70623 -8.71936,-7.31459 -18.14229,-12.52541 -0.592,-0.32737 -1.25412,-0.53605 -1.91917,-0.65993 -0.64711,-0.12054 -1.31576,-0.0435 -1.97364,-0.0652 -0.6508,0.20418 -1.33603,0.32048 -1.95241,0.61256 -0.62182,0.29464 -1.14449,0.76453 -1.72693,1.1309 -2.78534,1.75204 -5.71089,3.31841 -8.91751,4.14526 -6.45607,0.76715 -2.22028,-0.13769 9.75393,7.88325 0.13838,0.0927 -0.50565,-0.046 -0.45571,-0.20495 0.12384,-0.39407 2.28773,-2.85879 2.31233,-2.88822 0.5339,-0.63903 1.05819,-1.28602 1.58728,-1.92903 1.73346,-2.23714 3.36974,-4.51538 4.95569,-6.85983 0.81399,-1.20331 1.78591,-2.7788 2.77069,-3.88387 0.33002,-0.37032 0.73661,-0.66454 1.10492,-0.9968 5.25171,-0.52465 2.06328,-0.0335 -10.63159,-7.11783 -0.47341,-0.26418 0.70955,0.81991 1.0705,1.22441 1.60841,1.80249 3.31314,3.50219 5.31149,4.88251 3.48171,2.03245 12.07112,7.28778 17.61858,10.14229 0.99813,0.5136 2.00093,1.01918 3.01903,1.49194 1.03034,0.47844 3.44731,1.8064 4.84611,1.26099 0.4841,-0.18874 0.5504,-0.88134 0.8256,-1.322 -2.2067,-3.60434 -4.62274,-7.08234 -6.91913,-10.63027 -0.99423,-1.48012 -1.18885,-1.83982 -2.2913,-3.21227 -0.39763,-0.49502 -0.70226,-1.10381 -1.23357,-1.45148 -4.5053,-2.94807 -9.13741,-5.70195 -13.80358,-8.38817 -0.4644,-0.26734 -1.00829,-0.44185 -1.54412,-0.44719 -0.5521,-0.005 -1.0689,0.27721 -1.60334,0.41582 -1.48052,1.37845 -2.88336,2.8381 -4.3738,4.20564 -2.25589,2.06987 -4.62379,4.02108 -7.04919,5.8878 -2.13885,1.55764 -2.48394,1.88631 -4.6878,3.20656 -0.64789,0.38812 -1.30487,0.76293 -1.98008,1.1013 -0.48162,0.24136 -1.91827,0.31432 -1.48588,0.63564 11.34166,8.42831 15.55976,3.92391 11.11901,8.07947 0.61971,-0.98593 1.41775,-1.77732 2.19964,-2.63886 1.44661,-1.59396 2.85154,-3.2253 4.32035,-4.7992 1.93434,-1.97459 3.82835,-4.05885 6.02106,-5.75724 0.95233,-0.73765 2.17789,-1.63144 3.45215,-1.77478 0.46821,-0.0527 0.93327,0.1303 1.39991,0.19545 4.60342,2.17996 9.13781,4.51127 13.85984,6.43342 0.73391,0.22108 1.44496,0.78481 2.20183,0.66323 1.7467,-0.28063 1.9508,-1.27815 1.2083,-2.27318 -0.3862,-0.51765 -0.9171,-0.90982 -1.3644,-1.37572 -1.70341,-1.77411 -1.60087,-1.71233 -3.23449,-3.62691 -0.7118,-0.90681 -2.11518,-2.65604 -2.79455,-3.65885 -0.27993,-0.4132 -0.33052,-1.04268 -0.76601,-1.2865 -4.53331,-2.53805 -9.19407,-4.86063 -13.9498,-6.9524 -0.22819,-0.10037 -0.26608,0.44373 -0.2824,0.69248 -0.0151,0.23011 0.12893,0.44283 0.19339,0.66424 0.3109,1.57693 0.54887,2.77606 -0.69129,4.03901 -1.03311,0.66649 -2.13852,1.06949 -3.27339,1.54349 -1.93409,0.8078 -3.8595,1.64842 -5.87681,2.23468 -0.7716,0.19517 -1.53093,0.44762 -2.3148,0.58552 -0.73161,0.12871 -2.79408,-0.25755 -2.21845,0.21201 3.36836,2.7477 7.50067,4.42098 11.02214,6.96949 0.34791,0.25178 -0.94729,0.34047 -1.28608,0.0765 -0.96193,-0.74933 1.47081,-3.84402 1.42056,-3.37095 4.62317,-5.83327 9.54513,-11.48002 15.1435,-16.40386 0,0 -12.77285,-7.71073 -12.77285,-7.71073 z" /><path
           style="fill:#447821;fill-opacity:1"
           id="path5345"
           d="m 361.73396,233.46769 c 0.11567,1.83268 -0.273,3.71551 -0.88844,5.44041 -0.38216,1.07108 -0.7656,1.71372 -1.29123,2.70938 -0.23753,0.36419 -0.45345,0.74342 -0.71257,1.09257 -0.0831,0.11201 -1.83028,1.94593 -1.64302,2.06781 12.74453,8.29501 8.74529,10.13482 14.0471,7.27489 1.24158,-0.43197 2.27464,-1.35908 3.50937,-1.79718 0.34098,-0.12098 0.71272,-0.2594 1.06825,-0.19228 0.32457,0.0613 1.11543,0.70605 0.82452,0.54962 -3.87914,-2.08596 -7.72855,-4.22676 -11.59282,-6.34014 0.353,0.37891 0.73925,0.72937 1.05901,1.13672 0.56971,0.72578 1.32997,2.07134 1.77498,2.86791 0.67739,1.21252 1.30473,2.44061 1.87693,3.70537 -0.0295,0.44293 0.0323,-0.39173 -0.0651,-0.53988 -0.1194,-0.18164 -1.42221,-0.7198 -1.48516,-0.74603 -1.43054,-0.59621 -0.50327,-0.11098 -1.80138,-0.87145 22.78002,12.49494 13.11673,9.09939 10.24514,5.08275 -0.64483,-0.90195 -1.07838,-1.89285 -1.48435,-2.91617 -1.92347,-6.16975 -2.65531,-3.8216 -14.01185,-9.27063 -0.39836,-0.19114 -0.8059,0.3626 -1.20598,0.55012 -1.47096,0.68946 -1.00424,0.46105 -2.44626,1.3126 -2.36047,1.46175 -4.87901,2.6374 -7.29524,3.99765 -0.17611,0.19171 -0.42593,0.33579 -0.52833,0.57513 -2.07508,4.85 8.58891,6.21184 13.31862,8.54815 0.30082,0.1486 0.66704,-0.0763 0.99777,-0.13284 0.74226,-0.12681 1.67968,-0.35672 2.40667,-0.5256 0.80894,-0.0426 2.685,-0.89184 3.42786,-0.52102 0.22231,0.11097 0.60023,0.75992 0.38289,0.63952 -12.66083,-7.01353 -11.31428,-11.96688 -12.52619,-6.59128 -1.51151,2.60902 -3.95307,4.40184 -6.40767,6.0515 -0.87663,0.42906 -2.11449,1.40005 -3.11114,1.55632 -0.13269,0.0208 -0.49835,-0.19331 -0.3835,-0.12367 12.61821,7.64974 7.87829,6.94435 13.00482,7.67716 2.34322,-1.16239 4.70669,-2.2875 6.98521,-3.57848 1.36111,-0.69133 2.5041,-1.68254 3.60733,-2.71647 0.17772,-0.16656 0.32347,-0.59256 0.5436,-0.4883 0.31348,0.14848 0.28536,0.63234 0.42804,0.94851 -16.40432,-9.09602 -13.83504,-8.49687 -9.65701,-4.96849 1.27623,1.07779 2.54395,2.23265 3.64946,3.48911 0.41506,0.20387 12.88577,11.82642 13.76045,5.57766 0.11821,-0.84452 -0.62544,-1.89977 -1.04619,-2.57064 -3.71538,-5.16216 -9.97263,-8.08447 -15.92167,-10.12807 -0.16575,-0.051 -1.41483,-0.44856 -1.62086,-0.46019 -0.72836,-0.0411 -1.98693,0.3038 -2.61522,0.6658 -0.3771,0.21728 -0.71029,0.50314 -1.06543,0.75471 -2.04104,1.53166 -4.08251,3.02523 -6.40964,4.09127 -1.18096,0.39173 -2.38435,0.70748 -3.57559,1.06632 -0.13835,0.026 -0.27981,0.0389 -0.41505,0.078 -4.91534,1.42117 11.95638,8.63924 12.08833,8.71386 0.31133,0.17605 0.62944,-0.34039 0.95174,-0.49546 0.45352,-0.21822 0.91659,-0.416 1.37488,-0.624 3.12538,-1.46969 6.06425,-3.28401 8.75539,-5.44401 0.40587,-0.35109 1.04089,-0.92073 1.50077,-1.25286 0.14754,-0.10656 0.29025,-0.23401 0.46424,-0.28739 0.0785,-0.0241 0.30826,0.1107 0.23544,0.0727 -13.05994,-6.81283 -17.89459,-6.27299 -12.63591,-6.78266 0.0664,0.24153 0.16354,0.47665 0.19913,0.7246 0.3065,2.13523 -0.16156,4.4338 -0.83634,6.45331 -0.19637,0.58769 -0.46363,1.14927 -0.69544,1.72391 -1.30559,2.51564 -3.34194,4.46231 -5.90191,5.67111 -0.37027,0.17484 -0.7619,0.30028 -1.14285,0.45043 -0.23938,0.0322 -0.51293,0.22405 -0.71814,0.0967 -0.15463,-0.096 -0.16203,-0.63905 -0.006,-0.54598 4.2712,2.54178 8.31619,5.44967 12.56885,8.02233 0.10271,0.0621 0.13396,-0.2006 0.21635,-0.2879 0.41286,-0.43744 0.87138,-0.82941 1.30752,-1.24365 2.04527,-1.76816 3.7596,-3.83989 5.40759,-5.96981 0.60001,-0.71438 1.03564,-1.54434 1.59447,-2.28767 0.0976,-0.12979 0.15489,-0.39941 0.31488,-0.37169 0.14498,0.0251 0.19373,0.5027 0.0621,0.43701 -4.27517,-2.133 -8.43945,-4.48137 -12.65918,-6.72206 0.21626,0.15333 0.4574,0.27654 0.64878,0.45998 0.41484,0.39763 1.19504,1.48074 1.51129,1.90847 0.83627,1.13103 1.65458,2.27493 2.49047,3.40629 1.05503,1.27393 1.91353,2.73713 3.08676,3.91386 0.24048,0.2412 0.47273,0.5037 0.76713,0.67498 4.4785,2.60561 9.02254,5.0969 13.53382,7.64536 0.88628,0.28536 1.79993,0.45183 2.71592,0.60338 0,0 -11.77826,-8.9185 -11.77826,-8.9185 v 0 c -0.82919,-0.19878 -1.6549,-0.40997 -2.42396,-0.79215 3.87721,2.2648 7.77329,4.49761 11.63164,6.79439 0.28056,0.16701 -0.61834,-0.2258 -0.8932,-0.40205 -0.29117,-0.1867 -0.54081,-0.43327 -0.78754,-0.67567 -0.96304,-0.94614 -1.7276,-2.07303 -2.56823,-3.12193 -1.51946,-1.97907 -0.27914,-0.31354 -1.65832,-2.30288 -0.84457,-1.21822 -1.8019,-2.36573 -2.4179,-3.72761 -1.80989,-0.98034 -10.38069,-11.1223 -14.09703,-6.72665 -0.11934,0.14115 -0.18302,0.32119 -0.27249,0.48292 -0.42787,0.77339 -0.8141,1.57132 -1.32724,2.29467 -1.5291,2.13911 -3.23746,4.0483 -5.32702,5.66334 -0.16003,0.13128 -2.29697,1.81274 -2.15042,1.92686 16.80765,13.08877 8.0209,11.00617 13.37819,7.79715 1.32919,-0.73863 2.66539,-1.49358 3.79479,-2.52943 1.44445,-1.32481 2.59937,-2.96498 3.55231,-4.66396 0.2504,-0.61981 0.52747,-1.2295 0.75121,-1.85943 0.86623,-2.43873 1.43566,-5.00786 1.59202,-7.59171 0.89113,-5.89747 0.49567,-1.27845 -13.28427,-7.93504 -0.14978,-0.0724 -0.25309,0.2162 -0.37342,0.33106 -0.58887,0.56218 -1.10548,1.19676 -1.7158,1.7377 -2.45501,2.20203 -5.25813,3.9853 -8.38347,5.0837 -0.50792,0.14956 -1.00798,0.32898 -1.52376,0.44867 -0.33874,0.0786 -1.30692,-0.0697 -1.03314,0.14468 7.86377,6.15803 7.61053,9.91838 12.87124,8.18201 1.18796,-0.42355 2.41188,-0.76798 3.51214,-1.40409 2.18171,-1.29621 4.19728,-2.83602 6.35451,-4.16855 0.34342,-0.13652 0.67721,-0.30033 1.03026,-0.40954 1.26196,-0.39036 2.45553,0.11597 3.59655,0.6296 4.78569,2.61863 1.51906,0.84111 -11.16887,-6.5803 -0.1739,-0.10172 0.34765,0.20437 0.51352,0.31872 0.54404,0.37505 0.99165,0.85128 1.44892,1.32386 0.36193,0.47942 0.7188,0.96122 1.07927,1.44074 0.072,0.0958 0.0794,0.2981 0.19926,0.29949 0.15117,0.002 0.21017,-0.35936 0.34608,-0.29314 4.42749,2.15721 8.73027,4.5615 13.0954,6.84225 -0.21784,-0.0802 -0.45716,-0.11691 -0.65352,-0.24076 -0.64473,-0.40666 -1.72139,-1.50769 -2.20866,-1.9601 -5.56743,-5.16908 -6.21452,-5.60406 -16.57676,-10.70967 -0.4797,0.10622 -0.98944,0.12065 -1.43909,0.31865 -0.0212,0.009 -0.99301,1.05983 -1.05055,1.11466 -0.79806,0.76045 -1.72456,1.35883 -2.66196,1.93054 -2.34059,1.35939 -4.83869,2.35975 -7.29342,3.48487 -4.73395,3.97256 -1.63686,0.871 11.74481,8.84629 0.13652,0.0814 0.24514,-0.20363 0.37911,-0.28913 0.60181,-0.38406 1.26152,-0.67379 1.82879,-1.11473 0.39418,-0.25866 0.78111,-0.52819 1.17167,-0.79229 0.94711,-0.66734 1.70935,-1.17882 2.6078,-1.91681 1.66949,-1.3713 3.1173,-2.99819 4.40648,-4.7264 0.2305,-0.4305 1.06711,-0.97944 0.6915,-1.29149 -11.57877,-9.61968 -8.6336,-9.37574 -16.68128,-7.74015 -0.85017,0.12541 -1.49622,0.26412 -2.35351,0.23167 -4.95935,-0.1877 -10.89215,-8.37381 11.22244,6.98377 0.27462,0.1907 -0.99245,1.2772 -0.80041,0.60445 2.23985,-1.54421 4.78369,-2.60604 7.11377,-4.00554 0.6913,-0.33075 1.55127,-0.8114 2.334,-0.92791 0.30998,-0.0461 1.20071,0.22091 0.93892,0.0486 -3.87667,-2.55097 -7.92306,-4.83416 -11.88458,-7.25124 0.18881,0.14412 0.4426,0.22965 0.56643,0.43234 0.18018,0.29489 0.20227,0.6609 0.3034,0.99134 0.20052,0.57459 0.57157,1.67549 0.81741,2.22371 2.74743,6.12687 8.7451,7.5029 15.16245,10.94757 0.93207,0.37109 3.05655,1.37515 4.03704,0.93316 0.40432,-0.18227 0.75834,-0.51308 0.9853,-0.89411 0.17172,-0.28829 0.094,-0.6645 0.14102,-0.99675 -1.38437,-2.83073 -2.9731,-5.56012 -4.50855,-8.31037 -4.52031,-2.66239 -8.93459,-5.51362 -13.56094,-7.98716 -0.36015,-0.19256 -0.82424,-0.008 -1.22234,0.083 -0.69912,0.1599 -1.70179,0.76482 -2.32973,1.05922 -0.40569,0.1902 -0.81537,0.37354 -1.23472,0.53136 -0.37078,0.13954 -0.75519,0.23976 -1.13279,0.35965 -5.67396,0.50427 -0.6738,-0.10805 11.46016,7.88205 0.0906,0.0597 -0.34118,0.17402 -0.31832,0.0679 0.0584,-0.2711 0.29628,-0.46907 0.45393,-0.69722 0.23746,-0.34367 0.50516,-0.66647 0.73112,-1.0178 0.25568,-0.39755 0.47475,-0.81748 0.71213,-1.22623 0.48694,-0.98921 0.97636,-1.92433 1.36265,-2.96153 0.67336,-1.80798 1.00971,-3.71982 1.60163,-5.55232 0,0 -13.33735,-6.79572 -13.33735,-6.79572 z" /><path
           style="fill:#447821;fill-opacity:1"
           id="path5347"
           d="m 1024.2517,284.28176 c -0.2329,0.46842 -0.4072,0.97094 -0.6988,1.40526 -3.6216,5.39371 -9.94,8.82286 -15.3978,12.01697 -1.9378,1.2514 -4.1212,2.04379 -6.1173,3.18372 -0.4978,0.28427 -1.0632,0.5267 -1.4122,0.98144 -0.2754,0.35884 -0.73186,1.07259 -0.3479,1.31171 13.1138,8.16652 9.41,8.19978 17.0134,7.07691 6.8395,-1.22835 13.636,-2.7973 20.1223,-5.31311 0.6873,-0.32925 1.3747,-0.6585 2.062,-0.98775 0.4902,-0.28603 0.961,-0.6083 1.4707,-0.85809 0.1718,-0.0842 0.3718,-0.0907 0.5577,-0.13606 -4.3571,-2.47421 -8.5177,-5.33211 -13.0713,-7.42261 -0.4052,-0.18602 -0.5527,0.70067 -0.8531,1.03014 -0.4633,0.50811 -0.9574,0.98718 -1.4361,1.48077 -4.1819,4.29833 -8.8932,8.07735 -13.8538,11.43814 -1.3198,0.88429 -2.6473,1.7495 -4.0039,2.575 -0.2752,0.16743 -0.6115,0.26507 -0.8209,0.50977 -0.2407,0.28125 -0.7908,0.81116 -0.4748,1.00401 4.462,2.72297 9.2855,4.80395 13.9282,7.20593 3.1019,-1.50164 6.0361,-3.32146 8.6688,-5.55889 2.0497,-1.742 3.176,-3.06327 5.0027,-5.02259 2.1008,-2.54896 3.8792,-5.3341 5.39,-8.26744 0.3951,-0.76705 0.7478,-1.55521 1.1128,-2.33704 0.2778,-0.59523 0.4578,-1.24304 0.8155,-1.79398 0.1633,-0.25156 0.4726,-0.36937 0.7089,-0.55405 3.7724,3.70546 -0.3687,-0.4402 -11.8771,-6.12748 -0.3721,-0.1839 0.6177,0.56163 0.8688,0.89215 0.9739,1.28192 1.693,2.85944 2.504,4.2468 4.6211,7.05693 12.6805,11.41204 20.4239,14.26924 0.3826,0.1324 1.4967,0.60246 1.1478,0.39718 -4.1064,-2.41586 -8.511,-4.34374 -12.439,-7.04001 -0.3555,-0.24405 0.5455,-0.83661 0.3825,-1.23589 -0.1171,-0.28698 -0.6152,-0.0899 -0.9251,-0.0938 -1.4035,-0.0176 -2.8061,0.0808 -4.2094,0.10938 -3.4523,-0.0291 -6.946,0.21347 -10.3673,-0.39147 -2.1157,-0.51416 -1.128,-0.32542 -2.9549,-0.60745 -0.3102,0.41188 -0.7563,0.75034 -0.9306,1.23563 -1.0622,2.95842 3.1867,7.2248 4.9195,9.076 2.5971,2.32886 5.2874,4.70416 8.3151,6.47712 14.0325,8.21714 8.6552,8.1453 15.0012,8.034 0.5762,-0.83192 0.9845,-1.043 0.7131,-2.15161 -0.117,-0.47816 -1.1525,-1.30297 -1.4376,-1.47338 -4.5682,-2.73017 -9.2616,-5.24965 -13.7979,-8.03265 -3.7138,-2.27846 7.5533,4.3457 11.3299,6.51855 -2.3915,-1.43575 -4.6531,-3.04887 -6.369,-5.26532 -3.4167,-5.0383 -1.6825,-2.75508 -13.8615,-8.92175 -0.3808,-0.19284 -0.6936,0.50187 -1.0047,0.79414 -0.9843,0.92446 -1.5703,2.20914 -2.219,3.36606 -1.9246,3.06318 -3.6878,6.2469 -5.9233,9.09899 -0.5719,0.65153 -1.1763,1.43102 -1.915,1.91729 -2.2923,1.5091 -5.1441,2.26323 -7.726,3.09893 -0.4281,0.15752 -0.8795,0.26232 -1.2844,0.47258 -4.4982,2.33625 7.7274,6.62895 12.0529,9.27129 0.3351,0.20474 0.7489,-0.23792 1.1285,-0.33872 0.4495,-0.11937 0.9051,-0.21435 1.3577,-0.32152 0.536,-0.14263 1.072,-0.28526 1.608,-0.42788 1.6422,-0.56462 3.4491,-1.06512 4.9265,-2.01886 1.6073,-1.03759 2.8432,-2.61982 4.1148,-4.01789 0.4221,-0.18977 0.8105,-0.48843 1.2661,-0.56931 2.5873,-0.45927 7.1581,2.04059 9.4644,3.13359 3.8256,1.71355 7.9131,2.6685 11.9411,3.76471 0.3802,0.14294 0.7603,0.28587 1.1405,0.4288 0,0 -11.7473,-9.10394 -11.7473,-9.10394 v 0 c -0.3572,-0.0931 -0.7144,-0.18624 -1.0716,-0.27936 -4.0025,-1.02349 -7.9824,-2.17371 -11.7378,-3.92478 -3.0343,-1.34026 -6.9865,-3.46795 -10.3691,-2.07289 -0.5511,0.22728 -0.9923,0.66092 -1.4885,0.99138 -0.6781,0.76165 -1.6252,1.87857 -2.405,2.53593 -1.7501,1.47538 -3.9958,2.15102 -6.1645,2.73424 -0.6499,0.12804 -2.1931,0.4861 -2.9307,0.44636 -0.2935,-0.0158 -1.0826,-0.42139 -0.8467,-0.24603 14.3592,10.67547 7.3946,10.31404 13.2087,7.77448 2.7218,-1.00623 5.7462,-1.85367 8.1479,-3.53704 0.766,-0.53686 1.4455,-1.45005 2.033,-2.15871 2.1931,-2.95105 3.8924,-6.22972 5.9968,-9.24449 0.1042,-0.16144 1.1234,-1.78798 1.4175,-2.10959 0.1332,-0.14565 0.2818,-0.33212 0.4784,-0.34883 0.1167,-0.01 0.2967,0.35139 0.196,0.29151 -12.146,-7.22668 -14.7306,-11.22159 -11.3913,-6.40643 0.505,0.81704 0.857,1.46702 1.5079,2.18776 1.3348,1.47817 3.0735,2.54328 4.6904,3.66987 4.6588,2.71729 9.3189,5.43237 13.9765,8.15187 3.8531,2.24983 -7.7122,-4.4896 -11.5633,-6.74283 -0.3126,-0.18292 0.6321,0.35386 0.9476,0.5318 0.8905,0.50226 1.0208,0.36155 1.6503,-0.44112 -4.32,-2.09545 -1.7303,-0.85582 10.5788,6.25181 0.6626,0.3826 -1.3071,-0.79637 -1.9449,-1.2191 -2.2949,-1.52119 -4.5394,-3.1443 -6.5776,-4.99957 -1.6697,-1.61445 -3.2176,-3.22385 -4.4388,-5.21795 -0.2445,-0.39911 -0.4013,-0.84668 -0.6334,-1.25307 -0.1118,-0.19564 -0.2637,-0.36542 -0.3956,-0.54814 -0.017,0.0166 -0.033,0.0332 -0.05,0.0498 4.3878,0.6577 8.7955,0.71877 13.23,0.64062 0.8527,0.004 5.112,0.29627 5.9083,-0.30901 0.4981,-0.37867 1.5364,-1.19101 1.0353,-1.56581 -6.8188,-5.10073 -9.0144,-5.90609 -14.2974,-7.98342 -4.8903,-2.39162 -4.3477,-2.16788 9.8535,5.93094 0.4973,0.28363 -0.9468,-0.64575 -1.3956,-1.00128 -1.458,-1.15514 -2.7999,-2.46685 -3.8051,-4.04188 -0.5619,-0.96105 -1.1614,-1.90109 -1.6866,-2.88268 -0.1132,-0.21159 -1.288,-2.68037 -1.3138,-2.69648 -13.3136,-8.29862 -9.2642,-10.30811 -14.6774,-7.13996 -0.2711,0.36548 -0.6058,0.69142 -0.8133,1.09642 -0.2947,0.57542 -0.4369,1.21735 -0.6789,1.81683 -0.3123,0.77338 -0.6257,1.5474 -0.9838,2.30066 -1.3642,2.86982 -3.0642,5.55688 -5.1021,7.99805 -3.9742,4.21934 -8.0057,7.84026 -13.6665,9.57685 3.9869,2.56219 8.133,4.89203 11.9606,7.68657 0.2299,0.16787 -0.8483,0.46895 -0.5999,0.60792 0.2646,0.14798 0.4904,-0.35676 0.7391,-0.53007 1.2981,-0.90442 2.5985,-1.8048 3.8626,-2.75729 4.827,-3.66281 9.4865,-7.56279 14,-11.60325 0.5348,-0.49112 1.0775,-0.97373 1.6043,-1.47337 0.3792,-0.35962 1.5122,-0.76636 1.1133,-1.10393 -13.4204,-11.35563 -8.404,-10.05166 -15.9846,-6.28533 -6.3612,2.57245 -13.0903,4.1794 -19.9063,4.96127 -0.8869,0.0361 -3.3279,-0.47683 -2.6606,0.10845 3.3577,2.945 7.6226,4.68256 11.1888,7.37141 0.2516,0.18967 -0.9364,0.7308 -0.8414,0.4304 0.138,-0.43665 0.6236,-0.68207 1.0023,-0.93952 1.8743,-1.27404 4.0339,-2.0941 5.8838,-3.40701 6.3818,-3.89079 13.329,-7.69864 17.4788,-14.14416 0,0 -13.2508,-6.9605 -13.2508,-6.9605 z" /><path
           style="fill:#447821;fill-opacity:1"
           id="path5349"
           d="m 1028.0246,308.01503 c 2.2308,3.44663 4.7901,6.68688 7.3027,9.93487 1.9939,2.61564 3.9182,5.28514 5.9341,7.88349 1.6256,1.71627 0.7675,0.90698 2.5739,2.42815 0,0 13.6861,5.45669 13.6861,5.45669 v 0 c -1.8761,-1.2926 -0.9883,-0.59416 -2.6667,-2.09099 -1.0088,-1.17995 -1.8339,-2.43652 -2.7704,-3.66841 -1.0821,-1.42335 -2.3355,-2.72132 -3.2881,-4.24484 -2.4935,-3.08949 -4.8678,-6.29084 -7.1497,-9.53596 0,0 -13.6219,-6.163 -13.6219,-6.163 z" /><path
           style="fill:#447821;fill-opacity:1"
           id="path5351"
           d="m 1025.9033,313.67189 c 1.4253,2.62883 3.1884,5.05013 5.1475,7.30272 4.426,4.69057 9.6366,6.50279 15.915,9.88974 0.3674,0.19824 0.8188,0.16409 1.2271,0.25147 0.4769,0.10208 0.9523,0.21126 1.4284,0.31689 0,0 -11.7483,-8.99009 -11.7483,-8.99009 v 0 c -0.4755,-0.13592 -0.959,-0.24672 -1.4266,-0.40775 -0.383,-0.13189 -1.4685,-0.67739 -1.1208,-0.46948 3.9304,2.35063 7.936,4.57345 11.8788,6.90338 0.2664,0.15746 -0.5814,-0.22221 -0.8457,-0.38336 -0.581,-0.3544 -1.138,-0.95544 -1.6142,-1.41864 -2.1235,-1.93688 -3.8019,-4.34 -5.2193,-6.83188 0,0 -13.6219,-6.163 -13.6219,-6.163 z" /></g><g
         id="layer7"
         inkscape:label="ducks"
         transform="translate(-172.24702,-220.31297)"
         style="display:inline"><path
           style="fill:#f9f9f9;fill-opacity:1"
           d="m 483.125,278.875 c -0.8864,-1.06725 -1.31545,-2.38155 -1.875,-3.625 -0.37959,-0.84354 -0.63625,-1.10468 -0.875,-2 -0.31019,-1.16321 -0.375,-2.55002 -0.375,-3.75 0,-1.60527 0.036,-1.56164 0.875,-3 0.17861,-0.30619 0.058,-0.24638 0.375,-0.5 0.58354,-0.46683 1.55379,-0.51108 2.25,-0.25 0.7067,0.26501 1.36997,1.15364 1.875,1.625 0.3238,0.30221 0.72635,0.52672 1,0.875 0.083,0.10568 1.06604,2.08023 1.125,2.375 0.12842,0.64209 0,1.48318 0,2.125 0,0.84819 0.13887,1.79178 0,2.625 -0.0521,0.31253 -0.21801,0.23835 -0.375,0.5 -0.0678,0.11298 -0.0572,0.26201 -0.125,0.375 -0.24823,0.41371 -0.93489,1.02994 -1.375,1.25 -0.11785,0.0589 -0.26537,0.0519 -0.375,0.125 -0.0347,0.0231 0.0295,0.0955 0,0.125 -0.0659,0.0659 -0.18412,0.0591 -0.25,0.125 -0.0295,0.0295 0.0395,0.11182 0,0.125 -0.11859,0.0395 -0.25642,-0.0395 -0.375,0 -0.0395,0.0132 0,0.0833 0,0.125 -0.0833,0.0417 -0.16161,0.0955 -0.25,0.125 -0.0791,0.0263 -0.21273,-0.0745 -0.25,0 -0.0932,0.18634 0,0.41667 0,0.625"
           id="path5478" /><path
           style="fill:#f9f9f9;fill-opacity:1"
           d="m 926.75,347 c -2.85401,-3.06685 -6.66972,-4.81995 -10.75,-5.5 -0.71252,-0.11875 -1.52582,0 -2.25,0 -0.16667,0 -0.4473,-0.15811 -0.5,0 -0.0791,0.23717 0,0.5 0,0.75 0,0.6206 -0.14278,1.2263 0.25,1.75 0.66338,0.88451 1.8418,1.95508 2.75,2.5 0.22597,0.13558 0.53073,0.10382 0.75,0.25 0.0693,0.0462 -0.0589,0.19107 0,0.25 0.0589,0.0589 0.17546,-0.0373 0.25,0 0.56708,0.28354 1.26051,1.02103 1.5,1.5 0.16666,0.33333 -0.33334,0.66667 -0.5,1 -1.01375,2.02749 -1,2.61467 -1,4.75 0,0.16667 -0.11785,0.38215 0,0.5 0.0589,0.0589 0.17094,-0.0263 0.25,0 1.61168,0.53723 2.43189,0.69086 4,-0.25 0.35658,-0.21395 0.8214,-0.60713 1.25,-0.75 0.75528,-0.25176 0.31716,0.81716 0.5,1 0.11785,0.11785 0.33333,0 0.5,0 0.58561,0 1.97825,0.26087 2.5,0 0.45161,-0.22581 1.68944,-0.76708 2,-1 0.14907,-0.1118 0.10093,-0.3882 0.25,-0.5 0.21082,-0.15812 0.51429,-0.13215 0.75,-0.25 0.35718,-0.17859 0.34893,-0.5234 0.5,-0.75 0.13074,-0.19612 0.36925,-0.30388 0.5,-0.5 0.17893,-0.26841 0,-1.50504 0,-1.75 0,-0.33966 -0.0459,-1.0459 -0.25,-1.25 -0.12934,-0.12934 -1.74648,-0.58099 -2,-0.75 -0.0693,-0.0462 0,-0.16667 0,-0.25 -0.41667,-0.25 -0.83334,-0.5 -1.25,-0.75 z"
           id="path5480" /><path
           style="fill:#f9f9f9;fill-opacity:1"
           d="m 1053.2355,370.87751 c -1.4149,-5.15159 -2.2746,-11.9476 1.0607,-16.61701 0.4911,-0.68747 1.244,-1.11304 1.7678,-1.76777 0.9119,-1.13996 1.9254,-2.08979 3.5355,-1.76777 0.9566,0.19132 2.8644,2.08737 3.182,2.82843 0.1857,0.43329 -0.092,0.95196 0,1.41421 0.1462,0.73088 0.4879,1.40893 0.7071,2.12132 0.288,0.93608 0.948,3.11605 1.0607,4.24264 0.1297,1.29718 0.4069,6.28385 -0.3536,7.42463 -0.602,0.90304 -1.5912,0.78305 -2.4749,1.41421 -0.7161,0.51151 -1.3148,1.36454 -2.1213,1.76777 -0.2828,0.14142 -0.7778,-0.14143 -1.0607,0 -0.149,0.0745 -0.1954,0.30084 -0.3535,0.35355 -0.4274,0.14245 -2.7856,0.19821 -3.182,0 -0.2357,-0.11785 -0.1276,-0.57153 -0.3535,-0.70711 -2.3629,-1.41774 -1.4143,0.29547 -1.4143,-3.88909 0,-1.50622 -0.8811,-3.36688 -0.3535,-4.94974 0.086,-0.25705 2.5959,-2.41675 2.8284,-2.47488 0.5248,-0.1312 1.267,0.20031 1.7678,0 0.7922,-0.3169 1.5897,-0.9342 2.4749,-1.06066 0.4666,-0.0667 0.9728,0.16552 1.4142,0 0.5517,-0.2069 0.8871,-0.79713 1.4142,-1.06066 0.2108,-0.10541 0.4883,0.0875 0.7071,0 1.6055,-0.6422 0.5504,-0.6026 1.7678,-1.41421 0.4385,-0.29235 1.0093,-0.3697 1.4142,-0.70711 0.3264,-0.27202 0.3807,-0.78863 0.7071,-1.06066 0.5906,-0.49217 4.6407,-2.07681 5.3033,-1.41421 0.6879,0.68791 0.3535,2.36518 0.3535,3.18198 0,2.01076 -0.8299,3.85314 -2.4748,4.94975 -0.2774,0.1849 -0.3909,0.60169 -0.7071,0.7071 -0.2237,0.0745 -0.4835,-0.0745 -0.7072,0 -0.4293,0.14312 -1.9028,0.83187 -2.4748,1.06066 -0.9965,0.39861 -0.4298,0.70711 -1.4142,0.70711"
           id="path5484" /><path
           style="fill:#f9f9f9;fill-opacity:1"
           d="m 485.09375,268.78125 c 0.0417,0 0.0909,0.0239 0.125,0 0.43542,-0.3048 0.92798,-0.89618 1.21875,-1.28125 0.43668,-0.5783 0.48175,-0.84717 0.875,-1.46875 0.16379,-0.2589 0.35034,-0.50276 0.53125,-0.75 0.11363,-0.1553 0.64814,-0.86382 0.8125,-1 0.20916,-0.17331 0.45616,-0.29514 0.6875,-0.4375 0.13076,-0.0805 0.22703,-0.0942 0.3125,0.0625 0.11055,0.20268 0.10122,0.3053 0.125,0.53125 0.0612,0.58126 0.046,0.81304 -0.125,1.375 -0.0317,0.10404 -0.047,0.21431 -0.0937,0.3125 -0.0584,0.12262 -0.15801,0.22227 -0.21875,0.34375 -0.0753,0.15052 -0.125,0.3125 -0.1875,0.46875 -0.11458,0.19792 -0.23219,0.39411 -0.34375,0.59375 -0.0864,0.15458 -0.16214,0.315 -0.25,0.46875 -0.1984,0.3472 -0.43875,0.67737 -0.625,1.03125 -0.0586,0.11138 -0.0882,0.23787 -0.15625,0.34375 -0.12055,0.18752 -0.26978,0.35498 -0.40625,0.53125 -0.11354,0.14665 -0.22917,0.29167 -0.34375,0.4375 -0.11458,0.17708 -0.2193,0.36095 -0.34375,0.53125 -0.47607,0.65146 -0.1128,0.11077 -0.3125,0.34375 -0.0773,0.0902 -0.13477,0.19727 -0.21875,0.28125 -0.0165,0.0165 -0.046,0.0148 -0.0625,0.0312 -0.0147,0.0147 0,0.0417 0,0.0625"
           id="path5486" /></g><g
         id="g1"
         inkscape:label="beaks"
         transform="translate(-12.199955,-4.493593)"><path
           style="display:inline;fill:#ff7f2a;fill-opacity:1"
           d="m 323.98418,54.21187 c 0.0584,-0.48489 0.2057,-1.01114 0.59375,-1.34375 0.208,-0.17829 0.44384,-0.21879 0.6875,-0.3125 0.29101,-0.11193 0.0792,-0.0823 0.375,-0.15625 0.21489,-0.0537 0.55751,-0.0592 0.78125,-0.0312 0.0874,0.0109 0.1358,0.0661 0.21875,0.0937 0.0198,0.007 0.0478,-0.0147 0.0625,0 0.0147,0.0147 -0.008,0.0432 0,0.0625 0.014,0.0349 0.04,0.0637 0.0625,0.0937 0.04,0.0534 0.0974,0.0955 0.125,0.15625 0.0262,0.0577 0.0223,0.12477 0.0312,0.1875 0.0408,0.28577 0.0706,0.58566 -0.15625,0.8125 -0.39351,0.39351 -1.53009,0.3125 -2.09375,0.3125 -0.1122,0 -0.46183,-0.11284 -0.5625,-0.0625 -0.0778,0.0389 -0.004,0.0163 -0.0312,0.0625 -0.0268,0.0447 -0.0625,0.0833 -0.0937,0.125 z"
           id="path5554" /><path
           style="display:inline;fill:#ff7f2a;fill-opacity:1"
           d="m 323.20293,61.58687 c 0.61514,0.29337 1.32644,0.40544 2,0.25 0.0681,-0.0157 0.12121,-0.0716 0.1875,-0.0937 0.0654,-0.0218 0.1837,-0.0294 0.25,-0.0625 0.12824,-0.0641 0.25625,-0.17443 0.375,-0.25 0.11286,-0.0718 0.23903,-0.13497 0.34375,-0.21875 0.26843,-0.21474 0.50434,-0.45486 0.78125,-0.65625 0.0539,-0.0392 0.0966,-0.0952 0.15625,-0.125 0.0678,-0.0339 0.14875,-0.0333 0.21875,-0.0625 0.30772,-0.12822 0.30622,-0.21875 0.6875,-0.21875 0.29022,0 0.21875,0.8158 0.21875,0.96875 0,0.0625 0.0219,0.12898 0,0.1875 -0.0132,0.0352 -0.0649,0.0385 -0.0937,0.0625 -0.034,0.0283 -0.0559,0.071 -0.0937,0.0937 -0.18079,0.10847 -0.4254,0.15222 -0.625,0.21875 -0.0815,0.0272 -0.16577,0.0457 -0.25,0.0625 -0.0102,0.002 -0.0312,-0.0104 -0.0312,0 0,0.0104 0.0217,-0.004 0.0312,0 0.0642,0.0275 0.12597,0.0606 0.1875,0.0937 0.13379,0.072 0.58943,0.33842 0.5625,0.5 -0.004,0.0252 -0.16614,0.11279 -0.1875,0.125 -1.09554,0.62602 0.31922,-0.11368 -0.875,0.4375 -0.39701,0.18324 -0.22599,0.17522 -0.5625,0.25 -0.10972,0.0244 -1.09488,0.0621 -1.1875,0.0312 -0.23982,-0.0799 -0.41643,-0.20131 -0.65625,-0.28125 -0.11267,-0.0376 -0.23108,-0.0562 -0.34375,-0.0937 -0.38845,-0.12948 -0.0733,-0.0481 -0.34375,-0.15625 -0.0395,-0.0158 -0.15801,-0.033 -0.1875,-0.0625 -0.0165,-0.0165 -0.0148,-0.046 -0.0312,-0.0625 -0.0165,-0.0165 -0.046,-0.0148 -0.0625,-0.0312 -0.0435,-0.0435 -0.13433,-0.31653 -0.15625,-0.375 -0.0151,-0.0402 -0.012,-0.0866 -0.0312,-0.125 -0.0132,-0.0263 -0.0462,-0.038 -0.0625,-0.0625 -0.051,-0.0765 -0.0625,-0.27873 -0.0625,-0.375"
           id="path5556" /><path
           style="display:inline;fill:#ff7f2a;fill-opacity:1"
           d="m 326.35918,58.93062 c 0.63082,0.0291 1.02386,-0.30193 1.46875,-0.6875 0.17704,-0.15343 0.38647,-0.37787 0.625,-0.4375 0.0646,-0.0161 0.18196,0.0888 0.1875,0.0937 0.19593,0.17416 0.3017,0.49148 0.25,0.75 -0.0372,0.18623 -0.28822,0.20144 -0.34375,0.3125 -0.009,0.0186 0.0417,0.002 0.0625,0 0.10432,-0.009 0.20985,-0.0107 0.3125,-0.0312 0.055,-0.011 0.10106,-0.0525 0.15625,-0.0625 0.0311,-0.006 0.29897,-0.0135 0.3125,0 0.20353,0.20353 -0.25483,0.5577 -0.40625,0.625 -0.17153,0.0762 -0.40989,0.0312 -0.59375,0.0312 -0.19142,0 -0.40407,0.0271 -0.59375,0 -0.2062,-0.0295 -0.42851,-0.10266 -0.625,-0.15625 -0.23763,-0.0648 -0.48233,-0.11995 -0.71875,-0.1875 -0.10463,-0.0299 -0.13349,-0.0625 -0.25,-0.0625"
           id="path5558" /><path
           style="display:inline;fill:#ff7f2a;fill-opacity:1"
           d="m 765.29054,138.30853 c -0.0295,0.0884 -0.0731,0.17327 -0.0884,0.26517 -0.0324,0.19427 0.0326,0.43231 0.0442,0.61872 0.021,0.33541 0,0.68023 0,1.01646 0,0.48818 -0.12869,0.86178 -0.26517,1.32583 -0.14497,0.49291 -0.22097,0.99063 -0.22097,1.5026 0,0.16205 -0.0393,0.32893 0,0.48614 0.0274,0.10944 0.25887,0.41416 0.39775,0.44194 0.0433,0.009 0.0897,-0.0107 0.13258,0 0.0848,0.0212 0.15979,0.11502 0.26516,0.13258 0.50651,0.0844 1.84607,0.0644 2.07713,-0.39775 0.15279,-0.30557 -0.19709,-0.94245 -0.26516,-1.23743 -0.0501,-0.21722 -0.0317,-0.44733 -0.0884,-0.66292 -0.16139,-0.61327 -0.47551,-1.19136 -0.61872,-1.81196 -0.0468,-0.203 -0.0475,-0.41443 -0.0884,-0.61872 -0.0894,-0.44717 0.0112,0.2656 -0.13258,-0.30935 -0.0344,-0.1375 0.0258,-0.18046 0,-0.30936 -0.0245,-0.12248 -0.0884,-0.0914 -0.0884,-0.22097"
           id="path5564" /><path
           style="display:inline;fill:#ff7f2a;fill-opacity:1"
           d="m 768.91446,137.11529 c 0.4456,0.51349 1.00699,0.82461 1.59099,1.14905 0.12149,0.0675 0.22737,0.16273 0.35356,0.22097 0.27784,0.12824 0.72492,0.11639 1.01646,0.13258 1.30148,0.0723 -0.43414,0.0143 0.7513,0.0884 0.26227,0.0164 0.53205,0 0.7955,0 0.3304,0 1.0844,0.055 1.41421,0 0.0422,-0.007 0.39159,-0.16137 0.39775,-0.17677 0.089,-0.22257 0.0544,-0.7496 -0.0884,-0.92808 -0.0969,-0.12114 -0.43278,-0.27786 -0.57452,-0.30936 -0.14381,-0.032 -0.29553,0.0163 -0.44195,0 -0.2326,-0.0258 -0.47367,-0.0495 -0.7071,-0.0884 -0.44173,-0.0736 -0.88437,-0.1474 -1.32583,-0.22097 -0.33344,-0.0556 -0.014,-0.0495 -0.44194,-0.0884 -0.49099,-0.0446 -1.00795,0 -1.5026,0 -0.15643,0 -0.33185,0.022 -0.48614,0 -0.3931,-0.0562 -0.78778,-0.13258 -1.19324,-0.13258"
           id="path5566" /><path
           style="display:inline;fill:#ff7f2a;fill-opacity:1"
           d="m 897.14043,141.74312 c -1.0042,-0.23794 -1.8235,-0.91102 -2.75,-1.3125 -0.1949,-0.0845 -0.4193,-0.0719 -0.625,-0.125 -0.4406,-0.1137 -0.875,-0.25 -1.3125,-0.375 -0.2917,-0.0833 -0.5762,-0.19803 -0.875,-0.25 -0.1847,-0.0321 -0.375,0 -0.5625,0 -0.083,0 -0.1911,-0.0589 -0.25,0 -0.015,0.0147 0.015,0.0478 0,0.0625 -0.015,0.0147 -0.042,0 -0.062,0 -0.042,0.0833 -0.1067,0.15864 -0.125,0.25 -0.032,0.16076 -0.01,0.45998 0.062,0.625 0.048,0.11166 0.097,0.23179 0.1875,0.3125 0.8542,0.75932 1.9214,1.36696 2.9375,1.875 0.205,0.10249 0.6548,0.37457 0.875,0.4375 0.054,0.0153 1.0446,0.12321 1.0625,0.125 0.5612,0.0561 1.1344,0.23562 1.6875,0.125 0.2081,-0.0416 0.054,-0.0893 0.25,-0.1875 0.037,-0.0186 0.095,0.0295 0.125,0 0.047,-0.0466 0.057,-0.12185 0.062,-0.1875 0.06,-0.71835 -0.1629,-0.93784 -0.6875,-1.375 z"
           id="path5568" /><path
           style="display:inline;fill:#ff7f2a;fill-opacity:1"
           d="m 893.76543,155.30562 c 0.042,0.125 0.097,0.24616 0.125,0.375 0.1314,0.61311 0.1,1.25985 0.1875,1.875 0.073,0.51398 0.1471,1.03677 0.1875,1.5625 0.027,0.34975 -0.043,0.71456 0,1.0625 0.01,0.0654 0.05,0.1229 0.062,0.1875 0.044,0.21876 0.087,1.01075 -0.125,1.1875 -0.6048,0.50396 -2.2802,0.73924 -3.0625,1 -0.2388,0.0796 -0.4538,0.21901 -0.6875,0.3125 -0.08,0.0319 -0.1702,0.0306 -0.25,0.0625 -0.1674,0.0669 -0.076,0.1385 -0.125,0.1875 -0.015,0.0147 -0.083,0 -0.062,0 0.1545,0 1.59,-0.0742 1.8125,0 0.1352,0.0451 0.1736,0.0625 0.3125,0.0625 0.2683,0 1.1822,-0.0652 1.3125,0 0.068,0.0341 0.092,0.13312 0.125,0.1875 0.2956,0.49261 0.1851,0.55296 0.3125,1.0625 0.021,0.0833 0.042,0.16667 0.062,0.25 0.021,0.0417 0.048,0.0808 0.062,0.125 0.01,0.0198 -0.015,0.0772 0,0.0625 0.1259,-0.12587 0.1079,-0.34079 0.1875,-0.5 0.015,-0.0303 0.445,-0.60301 0.5,-0.625 0.079,-0.0315 0.5128,-0.0199 0.5625,0 0.2099,0.084 0.6264,0.3476 0.75,0.4375 0.072,0.052 0.1117,0.14202 0.1875,0.1875 0.036,0.0214 0.088,0.0186 0.125,0 0.019,-0.009 0.01,-0.0423 0,-0.0625 -0.058,-0.23045 -0.1299,-0.45706 -0.1875,-0.6875 -0.098,-0.39142 -0.1135,-0.79295 -0.1875,-1.1875 -0.1503,-0.80141 -0.125,-0.20672 -0.125,-0.8125 0,-0.29126 0.037,-0.64387 0,-0.9375 -0.024,-0.19411 -0.093,-0.37302 -0.125,-0.5625 -0.01,-0.0616 0.015,-0.12687 0,-0.1875 -0.027,-0.10884 -0.1049,-0.20212 -0.125,-0.3125 -0.049,-0.26833 0.03,-0.60388 0,-0.875 -0.019,-0.17075 -0.1037,-0.32953 -0.125,-0.5 -0.053,-0.42564 0.109,-2.26598 -0.125,-2.5"
           id="path5570" /><path
           style="display:inline;fill:#ff7f2a;fill-opacity:1"
           d="m 900.01543,155.49312 c 0.2151,0.6199 0.1691,1.31986 0.375,1.9375 0.03,0.0884 0.1024,0.15961 0.125,0.25 0.02,0.0808 -0.01,0.16731 0,0.25 0.011,0.0852 0.052,0.16476 0.062,0.25 0.053,0.42286 0,0.88648 0,1.3125 0,1.57228 0.021,-0.70436 -0.062,0.875 -0.043,0.80982 0.035,1.62746 0,2.4375 -0.016,0.36847 -0.1793,0.70909 -0.25,1.0625 -0.01,0.0409 0.019,0.0877 0,0.125 -0.01,0.0186 -0.048,-0.0147 -0.062,0 -0.015,0.0147 -0.015,0.0772 0,0.0625 0.2205,-0.22054 0.9419,-1.87721 1.0625,-1.9375 0.2851,-0.14257 0.7597,0.28193 0.9375,0.4375 0.4966,0.43451 1.007,0.88545 1.375,1.4375 0.093,0.13975 0.1524,0.30082 0.25,0.4375 0.012,0.017 0.072,0.0186 0.062,0 -0.053,-0.10541 -0.1973,-0.14459 -0.25,-0.25 -0.059,-0.11785 -0.078,-0.25202 -0.125,-0.375 -0.057,-0.14809 -0.1518,-0.2829 -0.1875,-0.4375 -0.015,-0.0635 -0.099,-1.13952 -0.062,-1.25 0.099,-0.29604 0.5461,-0.008 0.6875,0.0625 0.056,0.0279 0.1282,-0.0198 0.1875,0 0.071,0.0238 0.1162,0.10125 0.1875,0.125 0.065,0.0218 0.5948,0.17316 0.5,0.0625 -0.395,-0.46082 -0.5525,-0.61502 -0.875,-0.9375 -0.3086,-0.3086 -0.7187,-0.6171 -0.9375,-1 -0.088,-0.15455 -0.1079,-0.34079 -0.1875,-0.5 -0.1816,-0.36323 -0.4652,-0.68971 -0.625,-1.0625 -0.016,-0.0383 0.01,-0.0846 0,-0.125 -0.1226,-0.49028 -0.4177,-0.95486 -0.5625,-1.4375 -0.1089,-0.36286 -0.1646,-0.75509 -0.25,-1.125 -0.091,-0.39628 -0.1617,-0.79029 -0.25,-1.1875 -0.04,-0.18024 -0.125,-0.37693 -0.125,-0.5625"
           id="path5572" /></g></g><g
       id="g10"
       inkscape:label="duck"
       transform="translate(-12.74014,136.11291)"><path
         style="display:inline;fill:#f28525"
         d="m 689.51824,525.46455 c -40.68948,-5.52746 -70.33306,-12.13521 -82.26601,-18.15326 -5.28155,-2.6636 -10.94727,-8.62454 -10.94727,-10.85919 0,-1.78384 7.11059,-9.50731 11.22408,-11.32399 2.2,-0.97161 11.18766,-3.65735 18.25719,-5.34454 7.06952,-1.68719 14.45497,-3.66186 16.80197,-4.70005 4.90446,-2.16948 6.84379,-2.71037 3.16777,-1.8826 -4.16573,0.93804 -27.91382,3.6173 -44.16979,4.80689 -18.42293,1.34817 -22.38924,0.30639 -27.94817,-5.25253 -4.16717,-4.16718 -3.86274,-6.32661 1.92157,-11.4053 9.47129,-8.3159 27.15759,-14.35069 53.31954,-17.69349 20.24202,-2.58638 20.32086,-2.61237 30.86845,-5.06258 15.51234,-3.60352 20.09542,-7.09869 37.74608,-24.42513 17.73302,-17.40728 21.14641,-17.56155 35.86987,-17.56155 7.37763,0 10.65362,-0.73029 17.87292,2.76485 35.57034,17.221 42.03111,39.70896 45.55532,39.70896 3.69691,0 40.75989,6.5274 48.88435,8.22697 19.54121,4.08787 50.12117,16.9551 54.97649,22.32018 2.84477,3.14343 0.33458,7.85676 -6.0131,11.17283 -5.09477,2.66154 -6.55839,4.94356 -19.28957,3.43019 l -13.66168,0.54133 -9.89217,-6.97525 c -4.76398,-3.35921 -11.05203,-6.61868 -14.01342,-7.72668 -6.52776,-2.44235 -13.20205,-5.07426 -12.27803,-3.57916 0.3489,0.56454 4.79013,3.70773 10.18128,7.29677 9.66036,6.43116 24.9157,20.23824 24.9157,23.01427 0,2.13123 -8.64377,9.38248 -15.06013,12.61244 -7.44499,3.74778 -21.70684,8.59123 -36.46734,11.88798 -23.70093,5.29359 -29.464,5.65428 -68.19502,6.02662 -32.03471,0.30796 -38.63476,-0.1362 -51.36088,-1.86498 z m 80.86088,-1.87513 c 31.40379,-2.50751 65.7481,-10.9619 79.02047,-19.45213 7.45477,-4.76877 8.32886,-6.72775 4.96797,-11.13411 -3.12106,-4.09192 -10.63401,-18.36803 -18.89104,-16.74577 -32.97128,6.47786 -61.23789,21.88893 -111.69712,-0.83259 l -6.99356,-3.12707 -9.70336,2.27117 c -21.55641,5.04552 -26.13358,5.99088 -36.20336,7.47737 -5.775,0.8525 -20.96372,1.63066 -33.75271,2.16136 -22.5906,0.93742 -23.38788,1.04197 -28,3.67163 -6.23408,3.55444 -9.24729,6.67175 -9.24729,8.83531 0,3.01145 7.98665,8.40181 16.5,11.13622 15.4884,4.97474 49.76956,11.43544 82.5,15.54813 10.30773,1.29521 56.13554,1.41729 71.5,0.19048 z"
         id="path5"
         sodipodi:nodetypes="sssssssssssssssssssscsssssssssssssccssssssss"
         inkscape:label="beakShade" /><path
         style="display:inline;fill:#fba440"
         d="m 698.87912,529.35353 c -32.73044,-4.11269 -68.63558,-12.19737 -84.12398,-17.17211 -8.51335,-2.73441 -19.74796,-11.01184 -19.74796,-14.02329 0,-2.16356 1.01196,-9.12877 7.9842,-10.82751 37.22302,-9.06917 68.74795,-4.23935 104.0911,-13.11525 l 9.74755,-2.44795 6.94937,3.30385 c 37.90018,16.75835 76.05073,8.03514 113.77221,-0.80606 1.58841,-0.005 16.22108,11.39809 19.34214,15.49001 3.36089,4.40636 3.02813,13.58303 -4.42664,18.3518 -13.27237,8.49023 -49.06022,17.12506 -80.46401,19.63257 -15.36446,1.22681 -62.81625,2.90915 -73.12398,1.61394 z m 60.44113,-121.30147 c -1.86402,-1.49339 -1.85176,-1.51185 0.30887,-0.46481 1.2375,0.59969 2.25,1.29951 2.25,1.55516 0,0.76522 -0.51861,0.54424 -2.55887,-1.09035 z"
         id="path7"
         inkscape:label="beak"
         sodipodi:nodetypes="ssssscscssssssss" /><path
         d="m 867.07029,261.48624 c -8.11468,-13.69508 -23.59875,-48.72159 -39.75892,-57.30762 -33.68268,-17.8959 -72.38119,-42.87851 -75.15405,-49.34733 -1.82476,-4.25699 -26.28833,-40.78993 -28.03849,-41.87159 -1.1292,-0.69789 -1.06465,6.12478 0.14619,15.45205 1.15144,8.86966 0.53908,11.94843 -2.52973,12.71865 -2.99046,0.75056 -15.8208,-3.81246 -30.85351,-10.97282 l -11.86428,-5.65118 0.69023,3.76597 c 0.37962,2.07128 2.65115,9.77766 5.04784,17.12529 l 4.35762,13.35933 -2.68356,2.50727 c -3.40699,3.18319 -11.69414,8.79489 -20.72243,14.03233 -15.36038,8.91078 -44.79331,47.6564 -54.77335,65.1468 92.23015,30.0383 170.64917,37.33808 256.13644,21.04285 z"
         style="display:inline;fill:#ffffff"
         id="path1"
         inkscape:label="head"
         sodipodi:nodetypes="csssssscsscsscc" /><path
         style="display:inline;fill:#cbcbcb"
         d="m 590.43903,413.10723 c -0.28531,-9.35 -1.0094,-26.675 -1.60908,-38.5 -1.24559,-24.56159 -0.65973,-45.35111 2.1552,-65.76334 2.79535,-20.27022 19.48152,-68.85507 21.41127,-71.04955 0.84396,-0.95974 45.91188,16.38332 91.4827,24.84169 26.39233,4.89866 75.96006,4.28283 119.37259,-1.48309 14.77992,-1.96303 33.88143,-3.82235 35.11446,-4.13182 4.0948,-1.02772 6.31548,6.69556 7.13285,70.08611 0.54766,42.4733 0.47735,48.85749 -2.02628,72.71307 -1.82331,4.99303 -0.98747,37.2478 -4.20066,39.46638 -15.76277,-1.5633 -41.48153,1.2415 -57.09745,-1.62356 -3.30113,-7.82067 -4.85742,-16.55056 -10.78535,-22.57534 -14.77226,-14.70912 -30.12514,-23.3376 -34.83252,-25.5284 -16.52772,-7.69193 -30.27315,-7.8621 -46.197,-0.57192 -18.22081,8.34176 -24.24384,22.5817 -33.11502,30.76231 -7.14328,6.58718 -21.08539,10.85817 -49.93385,15.2966 -8.75245,1.10286 -26.91964,4.04446 -35.49372,6.03602 0,0 -1.22843,-23.32241 -1.37814,-27.97516 z M 877.95807,303.0239 c 0.048,-1.16495 0.28494,-1.4019 0.60416,-0.60417 0.28887,0.72187 0.25335,1.58437 -0.0789,1.91667 -0.33229,0.33229 -0.56864,-0.25834 -0.52522,-1.3125 z"
         id="path8"
         sodipodi:nodetypes="sssssssssssssssscssssss"
         inkscape:label="headShade" /><path
         style="display:inline;fill:#010101"
         d="m 682.87912,537.90562 c -9.34358,-0.56341 -34.89401,-4.29343 -47.5,-6.93436 -22.88804,-4.795 -35.13725,-10.11517 -43.39678,-18.84841 -6.72473,-7.1104 -7.98363,-11.7731 -5.30039,-19.63148 l 1.97178,-5.77473 -3.1373,-0.62464 c -14.41339,-2.86971 -24.63731,-9.78442 -24.63731,-16.66287 0,-6.53856 5.44041,-12.67162 18.83031,-21.22771 7.28698,-4.65635 7.32699,-4.70593 6.76907,-8.38911 -5.0189,-33.13307 -7.14837,-96.47546 -4.11509,-122.40614 4.31843,-36.91714 20.21533,-85.03356 35.87553,-108.58736 13.75663,-20.69074 37.10097,-41.08246 53.61713,-46.8356 5.87066,-2.04494 6.55362,-2.56704 6.82867,-5.22032 0.16809,-1.62147 -1.06941,-8.63523 -2.75,-15.58612 -1.68059,-6.9509 -3.05562,-13.67785 -3.05562,-14.94878 0,-2.30881 2.75397,-5.62076 4.67379,-5.62076 0.55898,0 8.78006,3.15247 18.26909,7.0055 9.48902,3.85302 18.39864,7.29309 19.79916,7.6446 2.38364,0.59826 2.5041,0.45409 1.88454,-2.2555 -0.99235,-4.34001 -2.00197,-31.76279 -1.27591,-34.65563 0.93718,-3.734032 3.26597,-4.076784 6.54151,-0.962782 1.57581,1.498095 7.71387,10.540612 13.64014,20.094472 12.89416,20.78697 20.58748,31.35881 26.54816,36.48141 2.50557,2.15328 15.67929,9.4464 30.41952,16.84059 19.19578,7.74549 40.13797,27.1749 40.13797,27.1749 20.83188,20.82374 28.88313,34.31517 36.86104,61.76782 5.02009,17.27453 6.4291,26.47325 7.65072,49.94771 1.65069,31.71916 -0.0124,63.10656 -5.21456,98.41691 -2.26886,15.4 -4.19494,29.57335 -4.28018,31.49633 -0.17382,3.92107 -0.64985,3.59952 18.45072,12.46313 15.17391,7.04145 21.87571,13.55952 21.8877,21.28766 0.009,5.743 -4.85422,11.08638 -14.37042,15.78954 -5.86806,2.90016 -8.65426,3.63347 -15.69229,4.13016 l -8.55741,0.6039 -1.70805,4.80912 c -0.93943,2.64502 -3.16092,6.26409 -4.93665,8.04239 -17.00456,17.02914 -120.18005,34.82718 -180.72859,31.17616 z m 76.5,-11.28458 c 37.52511,-1.76711 74.9455,-10.39252 91.49651,-21.08995 8.0091,-5.17653 9.12106,-7.63671 5.75243,-12.72704 -3.29378,-4.97725 -13.13546,-13.54092 -23.24894,-20.2299 -9.61233,-6.35754 -8.9582,-5.84205 -8.27729,-6.52296 0.96116,-0.96116 12.87303,2.57412 18.69733,5.5491 3.06898,1.5676 8.48034,4.91045 12.02524,7.42856 l 6.44528,4.57838 h 10.2555 c 15.7857,0 24.0594,-2.54517 28.04118,-8.62609 3.23464,-4.9399 -6.65279,-11.32185 -29.69451,-19.16664 -18.92968,-6.44481 -28.22059,-8.50588 -52.99273,-11.75576 -11.275,-1.47918 -21.25296,-3.08324 -22.17323,-3.56457 -0.92028,-0.48132 -3.14263,-3.46529 -4.93856,-6.63104 -6.43929,-11.35079 -20.72986,-23.23914 -39.618,-32.95829 -8.24168,-4.24086 -8.48678,-4.29748 -18.56109,-4.28784 -14.75848,0.0141 -17.48582,1.49485 -34.62313,18.79764 -7.66979,7.74385 -15.81804,14.99479 -18.61369,16.5639 -10.49034,5.88789 -20.75102,8.28829 -55.9723,13.09426 -16.25087,2.21744 -26.45381,4.91528 -36.06819,9.53707 -7.69974,3.70139 -16.43181,10.69005 -16.43181,13.15109 0,2.30252 7.96188,8.74849 11.66366,9.44295 5.88736,1.10448 24.68031,-0.17279 60.74761,-4.12872 l 5.08873,-0.55814 c -6.63109,4.01678 -14.29774,5.81579 -21.74079,7.71962 -15.12936,3.77182 -21.49554,6.45355 -26.56748,11.19146 -3.95927,3.69851 -4.0209,6.07996 -0.26148,10.10443 5.92633,6.34416 21.36906,11.4957 51.0324,17.0239 44.35176,8.26561 67.59485,9.99262 108.53735,8.06458 z m -134.5,-91.86315 c 25.06862,-4.3361 34.53937,-6.64543 43.4933,-10.60528 8.19099,-3.62244 10.83627,-5.80381 19.00172,-15.66926 4.04715,-4.88975 9.75393,-10.93971 12.68172,-13.44437 12.44411,-10.64562 29.25108,-14.81554 44.1126,-10.9446 21.66599,5.64327 53.55735,31.50867 57.80152,46.87975 0.77753,2.81599 1.05305,3.64533 8.54991,4.29839 3.06761,0.26723 7.34431,0.50494 13.35923,0.83717 5.775,0.31898 14.91894,1.27249 20.31988,2.11892 5.40093,0.84644 10.39497,1.31828 11.09787,1.04855 0.87403,-0.33539 1.49392,-4.0749 1.96108,-11.83017 0.37569,-6.23687 1.591,-19.43976 2.7007,-29.33976 3.91492,-34.9266 3.61448,-99.28529 -0.60377,-129.33515 -3.90069,-27.78761 -9.77828,-39.0937 -30.16114,-58.01773 -13.41798,-12.45764 -17.67673,-15.48757 -33.8369,-24.0736 -33.68267,-17.8959 -38.79361,-21.31175 -41.56647,-27.78057 -1.82476,-4.25699 -26.28833,-40.78993 -28.03849,-41.87159 -1.1292,-0.69789 -1.06465,6.12478 0.14619,15.45205 1.15144,8.86966 0.53908,11.94843 -2.52973,12.71865 -2.99046,0.75056 -15.8208,-3.81246 -30.85351,-10.97282 l -11.86428,-5.65118 0.69023,3.76597 c 0.37962,2.07128 2.65115,9.77766 5.04784,17.12529 l 4.35762,13.35933 c -7.61316,7.11303 -14.7215,11.50161 -23.40598,16.5396 -15.36038,8.91078 -35.12605,29.50386 -45.10609,46.99426 -13.95917,24.46399 -25.70599,59.40834 -28.32046,84.24749 -1.93847,18.41667 -0.89971,98.77713 1.60092,123.85108 0.51422,5.15616 0.63076,5.33312 3.19908,4.85773 1.46597,-0.27135 13.24041,-2.32251 26.16541,-4.55815 z"
         id="path2"
         sodipodi:nodetypes="sssscsssssssssssssssssssssssssssscsssssssssscssssssssssssssscssssssssssssssssssssssssscsscssssss"
         inkscape:label="outline" /></g><g
       id="g9"
       transform="translate(224,328.27288)"
       inkscape:label="letters"><path
         fill="#4f9ed5"
         d="m 675.43,9.6826929 13.59,4.8300001 c 8.94,3.07 15.81,4.71 20.96,8.28 7.84,6.12 9.72,14.63 8.27,24.42 -2.17333,14.58 -4.08667,29.193333 -5.74,43.84 -0.04,0.333333 0.0933,0.426667 0.4,0.28 l 26.3,-12.95 c 0.33268,-0.162905 0.70452,-0.225456 1.07,-0.18 0.94,0.113333 1.8,-0.116667 2.58,-0.69 0.28,-0.206667 0.59667,-0.306667 0.95,-0.3 l 7.64,0.01 c 0.30667,0 0.58,0.09667 0.82,0.29 0.74667,0.62 1.62,0.85 2.62,0.69 0.34,-0.06 0.66667,-0.01333 0.98,0.14 3.13,1.49 7.39,4.05 8.98,7.23 0.54,1.07 1.37,1.54 1.86,2.5 0.56,1.1 1.03,2.24 1.41,3.42 0.11333,0.333333 0.29333,0.376667 0.54,0.13 17.9,-17.76 38.83,-24.85 63.92,-25.1 7.33333,-0.06667 12.11333,-0.06 14.34,0.02 18.83,0.72 37.61,6.28 52.7,17.72 0.32,0.246667 0.57667,0.193333 0.77,-0.16 0.13333,-0.246667 0.15,-0.536667 0.05,-0.87 -0.11333,-0.386667 -0.0433,-0.676667 0.21,-0.87 l 6.04,-4.72 c 0.17867,-0.139024 0.38471,-0.250492 0.61,-0.33 1.03,-0.35 1.95,-1.09 2.94,-1.31 18.52,-4.053333 37.06,-8.026667 55.62,-11.92 9.87,-2.07 19.53,0.97 24.68,9.95 0.13333,0.233333 0.20667,0.483333 0.22,0.75 0.0267,0.366667 0.21667,0.63 0.57,0.79 0.3,0.133333 0.44667,0.363333 0.44,0.69 l -0.04,2.93 c 0,0.166667 0.0833,0.246667 0.25,0.24 0.16667,-0.0067 0.32,0.03333 0.46,0.12 0.22,0.126667 0.32667,0.316667 0.32,0.57 l -0.02,1.9 c 0,0.313333 0.13667,0.393333 0.41,0.24 5.57333,-3.06 11.48,-5.17 17.72,-6.33 3.45,-0.64 7.09,-0.47 10.68,-0.43 0.36,0.0067 0.6233,0.17 0.79,0.49 l 0.13,0.26 c 0.091,0.192303 0.2941,0.307862 0.51,0.29 1.16,-0.1 2.13,-0.25 3.22,0.32 4.66,2.41 8.28,5.57 10.84,10.39 7.1733,13.533327 14.3367,27.069997 21.49,40.609997 1.04,1.97 1.87,5.77 2.06,8.05 0.65,7.76 -2.73,15 -9.04,19.4 -1.66,1.16 -4.4667,2.34667 -8.42,3.56 -20.72,6.36 -37.94,15.83 -49.92,34.37 -0.18667,0.28667 -0.27667,0.60333 -0.27,0.95 0.45333,15.53333 0.89667,31.04333 1.33,46.53 0.16,5.81 0.44,11.72 -2.13,16.72 -3.66,7.12 -10.12667,10.7 -19.4,10.74 -17.91333,0.08 -35.83667,0.0867 -53.77,0.02 -10.82,-0.04 -16.92,0.31 -23.67,-6.88 -0.24,-0.25333 -0.4,-0.54667 -0.48,-0.88 -0.24667,-1.04667 -0.87667,-1.83333 -1.89,-2.36 -0.20873,-0.11028 -0.3367,-0.32745 -0.33,-0.56 l 0.03,-0.53 c 0.007,-0.21333 -0.08,-0.26667 -0.26,-0.16 -17.69,10.4 -36.86,15.51 -57.33,15.62 -9.01,0.05 -17,-0.32 -25.58,-2.15 -18.07,-3.84 -35.64,-17.11 -47.39,-31.07 -0.22667,-0.27333 -0.47,-0.28667 -0.73,-0.04 -6.28667,5.87333 -12.54667,11.74667 -18.78,17.62 -4.47333,4.21333 -7.75667,6.84667 -9.85,7.9 -9.24,4.64 -20.33,1.7 -27.32,-5.89 -4.32,-4.69333 -8.57,-9.23667 -12.75,-13.63 -0.42667,-0.44667 -0.68667,-0.36333 -0.78,0.25 -0.66,4.57 -1.59,9.62 -3.95,13.38 -3.49,5.56 -8.58,8.46 -15.05,9.19 -7.99,0.9 -16.37,0.52 -27.38,0.34 -7.64,-0.13 -21.31,0.65 -30.91,-0.72 -3.76667,-0.54 -7.15,-2.42333 -10.15,-5.65 -1.01,-1.09 -1.63,-2.72 -2.87,-3.93 -0.22746,-0.21462 -0.34515,-0.52354 -0.32,-0.84 0.0133,-0.20667 -0.0233,-0.40667 -0.11,-0.6 -0.0867,-0.2 -0.23,-0.34333 -0.43,-0.43 -0.58,-0.23333 -0.76667,-0.66 -0.56,-1.28 0.11333,-0.34667 0.007,-0.43333 -0.32,-0.26 l -11.84,6.19 c -6.81,3.48 -14.52,5.23 -22.03,6.8 -15.13,2.09 -31.13,2.91 -45.96,-1.32 -3.92,-0.9 -7.85333,-2.47667 -11.8,-4.73 -3.44,-1.96 -6.66,-4.09333 -9.66,-6.4 -0.42903,-0.32729 -0.98934,-0.43119 -1.51,-0.28 l -11.29,3.32 c -12.22,3.69 -24.58,7 -36.73,10.85 -4.66,1.48 -10.46,2.52 -15.27,1.19 -2.83,-0.78 -4.71,-0.62 -6.99,-3.19 -0.21333,-0.24667 -0.48333,-0.34 -0.81,-0.28 -0.54667,0.1 -0.92,-0.0733 -1.12,-0.52 -0.15333,-0.34667 -0.41333,-0.47667 -0.78,-0.39 -14.35,3.42 -25.09,3.38 -38.28,3.38 -1.8,0.007 -5.27333,-0.80333 -10.42,-2.43 -13.67333,-4.12 -24.87333,-11.5 -33.6,-22.14 -0.20667,-0.25333 -0.43,-0.27 -0.67,-0.05 -7.38,6.74667 -15.76,12.22667 -25.14,16.44 l -5.68,2.1 c -14.25333,4.80667 -28.58,6.70333 -42.98,5.69 -21.46,-1.52 -40.61,-12.99 -54.27,-29.3 -0.57,-0.69 -0.88,-1.31 -1.34,-2.15 -0.18,-0.33333 -0.41333,-0.37333 -0.7,-0.12 -9.47333,8.42 -18.95,16.82333 -28.43,25.21 -1.05,0.93 -2.37,1.17 -3.39,2.42 -0.21565,0.27365 -0.53993,0.44126 -0.89,0.46 -0.55333,0.0333 -1.02,0.25 -1.4,0.65 -0.26813,0.28022 -0.66357,0.4045 -1.05,0.33 -1.1,-0.20667 -2.09667,0.0133 -2.99,0.66 -0.27367,0.19556 -0.6014,0.30365 -0.94,0.31 -2.56,0.01 -6.54,0.58 -8.79,-0.73 -0.28667,-0.16667 -0.59333,-0.24333 -0.92,-0.23 -3.52,0.13 -9.14,-4.59 -11.64,-6.79 -0.3,-0.26667 -0.63667,-0.33 -1.01,-0.19 -19.24,7.01 -40.88,10.09 -61.17,7.11 -57.05,-8.35 -86.15,-62.11 -88.32,-115.42 v -18.11 C 2.55,86.502693 24.68,48.812693 64.04,24.012693 c 19.37,-12.2 39.64,-21.6900001 62.38,-22.9000001 44.77,-2.38 83.95,13.6800001 102.87,56.8500001 1.67333,3.806667 2.80667,7.243333 3.4,10.31 0.0667,0.333333 0.26667,0.473333 0.6,0.42 9.67333,-1.52 19.32333,-3.043333 28.95,-4.57 6.76,-1.073333 13.22667,0.29 19.4,4.09 0.28667,0.173333 0.59,0.206667 0.91,0.1 6.4,-2.07 11.55,-2.23 18.54,-0.67 16.8,3.753333 33.59333,7.55 50.38,11.39 1.07,0.24 1.78,0.93 2.84,1.35 0.29333,0.113333 0.55,0.28 0.77,0.5 0.64667,0.66 1.4,1.163333 2.26,1.51 0.28,0.113333 0.53,0.276667 0.75,0.49 l 2.76,2.71 c 0.20443,0.207359 0.53386,0.22875 0.77,0.05 15.58,-11.846667 33.04,-18.83 52.38,-20.95 6.37,-0.7 14.02,-0.47 21.03,-0.63 23.84,0.55 40.84,13.07 52.08,33.61 0.0432,0.08619 0.16194,0.09698 0.22,0.02 7.77333,-9.973333 17.26667,-17.903333 28.48,-23.79 18.9456,-9.693162 42.2737,-9.401296 62.94,-7.66 12.81333,1.273333 24.92,4.873333 36.32,10.8 0.32667,0.166667 0.50667,0.06667 0.54,-0.3 1.38,-14.78 2.75667,-29.533333 4.13,-44.26 0.74,-7.94 0.2,-15.64 3.71,-21.63 5.72667,-9.7800001 14.69,-12.9500001 26.89,-9.5100001 5.68,1.6066667 14.04333,4.3866667 25.09,8.34 z m 3.99,192.8099971 c 0.0334,-0.20541 0.28843,-0.28253 0.43,-0.13 l 42.57,44.43 c 0.29333,0.30667 0.59333,0.31667 0.9,0.03 l 36.53,-34.29 c 0.16924,-0.15827 0.18673,-0.42067 0.04,-0.6 -13.4,-16.24 -27.96667,-31.35 -43.7,-45.33 -0.24,-0.22 -0.22333,-0.41667 0.05,-0.59 l 45.26,-28.04 c 0.26371,-0.15813 0.38054,-0.47941 0.28,-0.77 L 748.41,97.042693 c -0.053,-0.167179 -0.24586,-0.247152 -0.41,-0.17 l -58.48,28.789997 c -0.13759,0.0697 -0.29892,-0.036 -0.29,-0.19 1.8,-28.529997 5.48,-56.779997 9.5,-85.069997 0.06,-0.393333 -0.0967,-0.653333 -0.47,-0.78 l -56.42,-19.73 c -0.31333,-0.106667 -0.48667,0.0033 -0.52,0.33 L 619.16,247.59269 c -0.0294,0.34517 0.24358,0.64125 0.59,0.64 l 50.46,0.01 c 0.27811,2.5e-4 0.51726,-0.19694 0.57,-0.47 z M 217.22,97.562693 c -0.14667,0.0067 -0.22667,-0.06667 -0.24,-0.22 -0.98,-11.68 -2.92,-23.9 -7.79,-34.24 -9.13,-19.36 -25.63,-33.02 -46.44,-38.53 -14.61,-3.88 -29.78,-4.88 -44.53,-2.14 -5.82667,1.08 -12.15333,3.113333 -18.98,6.1 -38.89,17.02 -68.75,44.95 -76.91,87.959997 -9.26,48.77 8.14,117.47 64.93,129.23 6.7,1.38667 11.78,2.04333 15.24,1.97 17.7,-0.36667 34.54,-4.32333 50.52,-11.87 0.28,-0.13333 0.54,-0.10333 0.78,0.09 l 14.23,11.51 c 0.22667,0.18 0.44667,0.17667 0.66,-0.01 l 33.5,-29.74 c 0.19747,-0.16916 0.2156,-0.46823 0.04,-0.66 l -11.33,-12.72 c -0.25333,-0.28 -0.27,-0.57333 -0.05,-0.88 10.64667,-14.77333 18.19333,-30.99333 22.64,-48.66 0.58,-2.31333 0.81333,-2.28 0.7,0.1 -1.11,23.31 0.78,45.31 11.6,66.46 1.83333,3.58667 4.06333,6.70667 6.69,9.36 12.52,12.66 28.68,19.58 46.77,18.2 22.27,-1.69 41.56,-9.91 55.35,-27.52 4.67,-5.97 7.26,-11.48 8.77,-18.71 1.66,-7.93333 2.72333,-15.48667 3.19,-22.66 1.01333,-15.76667 1.11667,-31.62667 0.31,-47.58 -0.004,-0.23149 0.25871,-0.36601 0.43,-0.22 l 33.02,26.22 c 0.25333,0.2 0.49333,0.18333 0.72,-0.05 9.14,-9.62 18.97,-20.34 31.67,-25.21 2.83,-1.09 7.02,-2.13 9.62,-0.1 5.67,4.43 6.63,19.99 6.88,26.65 0.0133,0.34667 -0.15333,0.5 -0.5,0.46 -12.58667,-1.42 -25.15667,-1.28333 -37.71,0.41 -13.3,1.8 -28.03,6.09 -36.77,17.09 -4.84667,6.09333 -7.25,13.12333 -7.21,21.09 0.1,21.39 10.61,40.43 31.41,47.52 4.19,1.43 8.63,2.95 12.58,2.99 14.85333,0.16667 29.69667,-2.56333 44.53,-8.19 0.42,-0.16 0.67,-0.02 0.75,0.42 l 1.53,8.74 c 0.0667,0.38 0.28667,0.51333 0.66,0.4 l 51.23,-14.94 c 0.16846,-0.0515 0.27723,-0.21468 0.26,-0.39 -2.54667,-31.27333 -6.00333,-62.38 -10.37,-93.32 -3.16,-22.35 -13.55,-54.279997 -40.1,-57.479997 -8.76667,-1.06 -18.44,-0.683333 -29.02,1.13 -27.07,4.63 -47.52,22.819997 -63.21,44.929997 -0.18,0.24667 -0.27667,0.22 -0.29,-0.08 l -1.7,-31.419997 c -0.0179,-0.40082 -0.30174,-0.738098 -0.69,-0.82 l -52.33,-11.8 c -0.28393,-0.06688 -0.55284,0.162201 -0.54,0.46 1.37,26.559997 3.94,53.519997 1.07,80.099997 -0.65,6.06 -2.1,14.8 -6.93,19.08 -3.17,2.8 -9.43,1.37 -12.45,-0.7 -5.67,-3.87 -7.57,-14.01 -8.35,-20.66 -0.89333,-7.62 -1.24333,-12.78 -1.05,-15.48 1.52,-21.78667 3.07,-43.52 4.65,-65.199997 0.0164,-0.211542 -0.17398,-0.382419 -0.39,-0.35 l -50.11,7.94 c -0.40667,0.06667 -0.62,0.306667 -0.64,0.72 l -0.2,5.01 c -0.007,0.133333 -0.0367,0.203333 -0.09,0.21 z m 694.11,116.819997 -11.34,-38.4 c -0.10017,-0.35295 -0.53372,-0.48141 -0.81,-0.24 -14.58,12.97 -35.4,27.42 -55.95,26.34 -7.15,-0.38 -17.77,-1.12 -22.94,-6.95 -0.13588,-0.15427 -0.0811,-0.39831 0.11,-0.49 l 89.09,-40.79 c 0.30667,-0.14 0.46333,-0.38 0.47,-0.72 0.18667,-19.96 -6.48,-36.56333 -20,-49.81 -11.6,-11.369997 -29.81,-16.349997 -45.72,-16.789997 -3.24667,-0.08667 -8.32667,-0.02333 -15.24,0.19 -24.21,0.74 -43.7,12.97 -57.24,32.569997 -1.64,2.38 -3.04333,4.98333 -4.21,7.81 -5.43,13.2 -7.96,28.53 -8.43,42.91 -0.23333,6.98667 0.35,13.6 1.75,19.84 5.55,24.84 20.1,45.75 43.33,57.04 4.2,2.04667 8.73333,3.47667 13.6,4.29 35.96,6.01 68.98,-9.44 93.38,-34.7 0.41333,-0.42667 0.61,-0.34333 0.59,0.25 l -1.14,31.06 c -0.006,0.24138 0.18856,0.44007 0.43,0.44 l 62.94,0.01 c 0.30667,0 0.45667,-0.15667 0.45,-0.47 -0.52,-19.31333 -1.07,-38.56667 -1.65,-57.76 -0.0467,-1.38667 0.25667,-2.66 0.91,-3.82 14.37,-25.51 38.87,-40.68 66.77,-47.65 0.2451,-0.0616 0.3678,-0.33642 0.25,-0.56 l -22.26,-42.039997 c -0.1933,-0.366667 -0.4933,-0.533333 -0.9,-0.5 -15.83,1.16 -35.02,18.159997 -45.76,28.949997 -0.16431,0.15694 -0.436,0.0405 -0.42,-0.18 l 1.51,-40.489997 c 0.005,-0.218916 -0.19573,-0.385132 -0.41,-0.34 l -55.72,11.9 c -0.19996,0.04101 -0.34769,0.217475 -0.36,0.43 L 911.9,214.31269 c -0.0467,1.16667 -0.23667,1.19 -0.57,0.07 z M 528,90.872693 c -18.56,7.82 -31.01,24.669997 -36.22,43.859997 -4.02,14.79 -5.32,30.95 -4.75,46 1.11,29.05 13.82,62.91 46.25,67.83 5.70667,0.86667 12.36,0.95 19.96,0.25 28.32,-2.61 51.5,-18.42 66.46,-42.24 0.20667,-0.33333 0.17,-0.63333 -0.11,-0.9 l -27.09,-25.97 c -0.3005,-0.28693 -0.77264,-0.28248 -1.06,0.01 -9.41,9.42 -23.07,17 -36.44,10.97 -14.89,-6.71 -15.94,-24.66 -11.51,-38.44 7.74,-24.1 34.67,-21.04 50.31,-8.04 0.38667,0.32 0.75667,0.29667 1.11,-0.07 l 31.21,-32.55 c 0.26,-0.26667 0.26333,-0.53333 0.01,-0.8 -20.79,-21.979997 -49.55,-27.879997 -78.74,-24.529997 -7.69333,0.88 -14.15667,2.42 -19.39,4.62 z"
         id="path26"
         sodipodi:nodetypes="cccccccccccccccccccccccccccccccccscccccccccccccccccccccccccccccccccccccccccccccccccccccccccccccccccccccccccccccccccccccccccccccccccccccccccscccccccccccccccccccccccccccccccccccccccccccccccscccccccccccccccccccccccccccccccccccccccccccccccccccccccccccccccccccccccccccccccccccccccccccccccccccc" /><path
         fill="#ffffff"
         d="m 679.42,202.49269 -8.64,45.28 a 0.58,0.58 0 0 1 -0.57,0.47 l -50.46,-0.01 a 0.59,0.59 0 0 1 -0.59,-0.64 L 641.32,20.222693 q 0.05,-0.49 0.52,-0.33 l 56.42,19.73 q 0.56,0.19 0.47,0.78 c -4.02,28.29 -7.7,56.54 -9.5,85.069997 a 0.2,0.2 0 0 0 0.29,0.19 L 748,96.872693 a 0.29,0.3 68.3 0 1 0.41,0.17 l 13.37,40.159997 a 0.65,0.65 0 0 1 -0.28,0.77 l -45.26,28.04 q -0.41,0.26 -0.05,0.59 23.6,20.97 43.7,45.33 a 0.44,0.44 0 0 1 -0.04,0.6 l -36.53,34.29 q -0.46,0.43 -0.9,-0.03 l -42.57,-44.43 a 0.25,0.25 0 0 0 -0.43,0.13 z"
         id="path27" /><path
         fill="#ffffff"
         d="m 217.32,97.352693 0.2,-5.01 q 0.03,-0.62 0.64,-0.72 l 50.11,-7.94 a 0.33,0.34 87.2 0 1 0.39,0.35 q -2.37,32.519997 -4.65,65.199997 -0.29,4.05 1.05,15.48 c 0.78,6.65 2.68,16.79 8.35,20.66 3.02,2.07 9.28,3.5 12.45,0.7 4.83,-4.28 6.28,-13.02 6.93,-19.08 2.87,-26.58 0.3,-53.54 -1.07,-80.099997 a 0.44,0.45 4.9 0 1 0.54,-0.46 l 52.33,11.8 a 0.87,0.88 4.7 0 1 0.69,0.82 l 1.7,31.419997 q 0.02,0.45 0.29,0.08 c 15.69,-22.11 36.14,-40.299997 63.21,-44.929997 q 15.87,-2.72 29.02,-1.13 c 26.55,3.2 36.94,35.129997 40.1,57.479997 q 6.55,46.41 10.37,93.32 a 0.37,0.37 0 0 1 -0.26,0.39 l -51.23,14.94 q -0.56,0.17 -0.66,-0.4 l -1.53,-8.74 q -0.12,-0.66 -0.75,-0.42 -22.25,8.44 -44.53,8.19 c -3.95,-0.04 -8.39,-1.56 -12.58,-2.99 -20.8,-7.09 -31.31,-26.13 -31.41,-47.52 q -0.06,-11.95 7.21,-21.09 c 8.74,-11 23.47,-15.29 36.77,-17.09 q 18.83,-2.54 37.71,-0.41 0.52,0.06 0.5,-0.46 c -0.25,-6.66 -1.21,-22.22 -6.88,-26.65 -2.6,-2.03 -6.79,-0.99 -9.62,0.1 -12.7,4.87 -22.53,15.59 -31.67,25.21 q -0.34,0.35 -0.72,0.05 l -33.02,-26.22 a 0.26,0.27 18.4 0 0 -0.43,0.22 q 1.21,23.93 -0.31,47.58 -0.7,10.76 -3.19,22.66 c -1.51,7.23 -4.1,12.74 -8.77,18.71 -13.79,17.61 -33.08,25.83 -55.35,27.52 -18.09,1.38 -34.25,-5.54 -46.77,-18.2 q -3.94,-3.98 -6.69,-9.36 c -10.82,-21.15 -12.71,-43.15 -11.6,-66.46 q 0.17,-3.57 -0.7,-0.1 -6.67,26.5 -22.64,48.66 -0.33,0.46 0.05,0.88 l 11.33,12.72 a 0.46,0.46 0 0 1 -0.04,0.66 l -33.5,29.74 q -0.32,0.28 -0.66,0.01 l -14.23,-11.51 q -0.36,-0.29 -0.78,-0.09 -23.97,11.32 -50.52,11.87 -5.19,0.11 -15.24,-1.97 c -56.79,-11.76 -74.19,-80.46 -64.93,-129.23 8.16,-43.009997 38.02,-70.939997 76.91,-87.959997 q 10.24,-4.48 18.98,-6.1 c 14.75,-2.74 29.92,-1.74 44.53,2.14 20.81,5.51 37.31,19.17 46.44,38.53 4.87,10.34 6.81,22.56 7.79,34.24 q 0.02,0.23 0.24,0.22 h 0.01 q 0.08,-0.01 0.09,-0.21 z m -82.12,33.969997 16.5,20.22 q 0.5,0.61 0.89,-0.08 c 8.5,-15.07 13.55,-36.59 8.29,-53.689997 -5.04,-16.38 -23.09,-19.47 -37.15,-14.29 -14.55,5.36 -25.56,18.879997 -33.37,31.929997 q -4.18,7 -5.98,14.09 c -1.77,7 -3.04,15.47 -1.74,22.64 2.57,14.15 8.71,24.63 23.47,26.72 5.58,0.78 11.7,-0.63 17.26,-2.19 q 0.53,-0.15 0.39,-0.69 l -7.79,-29.77 a 0.9,0.89 64.2 0 1 0.32,-0.94 l 18,-14.06 a 0.66,0.65 51.3 0 1 0.91,0.11 z m 259.53,70.03 c -1.25,12.71 31.19,6.29 37.16,4.97 q 0.49,-0.1 0.44,-0.6 l -1.42,-14.26 q -0.06,-0.57 -0.63,-0.58 c -8.97,-0.14 -34.28,-2.41 -35.55,10.47 z"
         id="path28" /><path
         fill="#4f9ed5"
         d="m 134.29,131.21269 -18,14.06 c -0.28589,0.2179 -0.41212,0.58868 -0.32,0.94 l 7.79,29.77 c 0.0933,0.36 -0.0367,0.59 -0.39,0.69 -5.56,1.56 -11.68,2.97 -17.26,2.19 -14.76,-2.09 -20.9,-12.57 -23.47,-26.72 -1.3,-7.17 -0.03,-15.64 1.74,-22.64 1.2,-4.72667 3.193333,-9.42333 5.98,-14.09 7.81,-13.05 18.82,-26.569997 33.37,-31.929997 14.06,-5.18 32.11,-2.09 37.15,14.29 5.26,17.099997 0.21,38.619997 -8.29,53.689997 -0.26,0.46 -0.55667,0.48667 -0.89,0.08 l -16.5,-20.22 c -0.22667,-0.27854 -0.63104,-0.32742 -0.91,-0.11 z"
         id="path29"
         sodipodi:nodetypes="ccccccccccccccc" /><path
         fill="#ffffff"
         d="m 911.33,214.38269 q 0.5,1.68 0.57,-0.07 l 4.51,-118.599997 a 0.47,0.45 86.1 0 1 0.36,-0.43 l 55.72,-11.9 a 0.34,0.34 0 0 1 0.41,0.34 l -1.51,40.489997 a 0.24,0.25 68.6 0 0 0.42,0.18 c 10.74,-10.79 29.93,-27.789997 45.76,-28.949997 q 0.61,-0.05 0.9,0.5 l 22.26,42.039997 a 0.39,0.39 0 0 1 -0.25,0.56 c -27.9,6.97 -52.4,22.14 -66.77,47.65 q -0.98,1.74 -0.91,3.82 0.87,28.79 1.65,57.76 0.01,0.47 -0.45,0.47 l -62.94,-0.01 a 0.43,0.43 0 0 1 -0.43,-0.44 l 1.14,-31.06 q 0.03,-0.89 -0.59,-0.25 c -24.4,25.26 -57.42,40.71 -93.38,34.7 q -7.3,-1.22 -13.6,-4.29 c -23.23,-11.29 -37.78,-32.2 -43.33,-57.04 q -2.1,-9.36 -1.75,-19.84 c 0.47,-14.38 3,-29.71 8.43,-42.91 q 1.75,-4.24 4.21,-7.81 C 785.3,99.692693 804.79,87.462693 829,86.722693 q 10.37,-0.32 15.24,-0.19 c 15.91,0.44 34.12,5.42 45.72,16.789997 q 20.28,19.87 20,49.81 -0.01,0.51 -0.47,0.72 l -89.09,40.79 a 0.31,0.32 57 0 0 -0.11,0.49 c 5.17,5.83 15.79,6.57 22.94,6.95 20.55,1.08 41.37,-13.37 55.95,-26.34 a 0.5,0.5 0 0 1 0.81,0.24 z m -103.95,-58.5 51.9,-23.02 a 0.52,0.53 56.8 0 0 0.18,-0.84 q -9.59,-10.49 -23.96,-9.66 -9.01,0.52 -12.19,1.92 c -12.79,5.65 -17.81,17.94 -16.43,31.31 a 0.36,0.36 0 0 0 0.5,0.29 z"
         id="path30" /><path
         fill="#ffffff"
         d="m 491.78,134.73269 c 5.21,-19.19 17.66,-36.039997 36.22,-43.859997 q 7.85,-3.3 19.39,-4.62 c 29.19,-3.35 57.95,2.55 78.74,24.529997 q 0.38,0.4 -0.01,0.8 l -31.21,32.55 q -0.53,0.55 -1.11,0.07 c -15.64,-13 -42.57,-16.06 -50.31,8.04 -4.43,13.78 -3.38,31.73 11.51,38.44 13.37,6.03 27.03,-1.55 36.44,-10.97 a 0.76,0.75 44.2 0 1 1.06,-0.01 l 27.09,25.97 q 0.42,0.4 0.11,0.9 c -14.96,23.82 -38.14,39.63 -66.46,42.24 q -11.4,1.05 -19.96,-0.25 c -32.43,-4.92 -45.14,-38.78 -46.25,-67.83 -0.57,-15.05 0.73,-31.21 4.75,-46 z"
         id="path31" /><path
         fill="#4f9ed5"
         d="m 859.28,132.86269 -51.9,23.02 a 0.36,0.36 0 0 1 -0.5,-0.29 c -1.38,-13.37 3.64,-25.66 16.43,-31.31 q 3.18,-1.4 12.19,-1.92 14.37,-0.83 23.96,9.66 a 0.52,0.53 56.8 0 1 -0.18,0.84 z"
         id="path32" /><path
         fill="#4f9ed5"
         d="m 431.89,206.32269 c -5.97,1.32 -38.41,7.74 -37.16,-4.97 1.27,-12.88 26.58,-10.61 35.55,-10.47 q 0.57,0.01 0.63,0.58 l 1.42,14.26 q 0.05,0.5 -0.44,0.6 z"
         id="path33"
         inkscape:label="path33" /></g></g></svg>
